<svg xmlns="http://www.w3.org/2000/svg" xmlns:xlink="http://www.w3.org/1999/xlink" width="856" height="383" fill="#000" fill-opacity="1" stroke="#000" stroke-dasharray="none" stroke-dashoffset="0" stroke-linecap="square" stroke-linejoin="miter" stroke-miterlimit="10" stroke-opacity="1" stroke-width="1" color-interpolation="auto" color-rendering="auto" font-family="'Dialog'" font-size="12" font-style="normal" font-weight="normal" image-rendering="auto" shape-rendering="auto" text-rendering="auto"><g><defs id="defs1"><clipPath id="clipPath1" clipPathUnits="userSpaceOnUse"><path d="M0 0 L856 0 L856 383 L0 383 L0 0 Z"/></clipPath><clipPath id="clipPath2" clipPathUnits="userSpaceOnUse"><path d="M494 332 L1350 332 L1350 715 L494 715 L494 332 Z"/></clipPath></defs><g fill="#fff" stroke="#fff" shape-rendering="geometricPrecision" text-rendering="geometricPrecision" transform="translate(-494,-332)"><rect width="856" height="383" x="494" y="332" stroke="none" clip-path="url(#clipPath2)"/></g><g fill="#D4E7CD" stroke="#D4E7CD" shape-rendering="geometricPrecision" text-rendering="geometricPrecision" transform="matrix(1,0,0,1,-494,-332)"><rect width="232" height="96" x="539.819" y="430.87" stroke="none" clip-path="url(#clipPath2)"/></g><g stroke-linecap="butt" stroke-miterlimit="1.45" shape-rendering="geometricPrecision" text-rendering="geometricPrecision" transform="matrix(1,0,0,1,-494,-332)"><rect width="232" height="96" x="539.819" y="430.87" fill="none" clip-path="url(#clipPath2)"/><text x="560.589" y="456.335" stroke="none" clip-path="url(#clipPath2)" font-family="sans-serif" font-size="16" xml:space="preserve">ConfigMonitoringService</text></g><g fill="#D4CCE6" stroke="#D4CCE6" shape-rendering="geometricPrecision" text-rendering="geometricPrecision" transform="matrix(1,0,0,1,-494,-332)"><rect width="146" height="43" x="582.819" y="472.87" stroke="none" clip-path="url(#clipPath2)"/></g><g stroke-linecap="butt" stroke-miterlimit="1.45" shape-rendering="geometricPrecision" text-rendering="geometricPrecision" transform="matrix(1,0,0,1,-494,-332)"><rect width="146" height="43" x="582.819" y="472.87" fill="none" clip-path="url(#clipPath2)"/><text x="599.472" y="500.417" stroke="none" clip-path="url(#clipPath2)" font-family="sans-serif" font-size="16" xml:space="preserve">GnmiPublisher</text></g><g fill="#C9DEF1" stroke="#C9DEF1" shape-rendering="geometricPrecision" text-rendering="geometricPrecision" transform="matrix(1,0,0,1,-494,-332)"><rect width="232" height="30" x="539.819" y="400.87" stroke="none" clip-path="url(#clipPath2)"/></g><g stroke-linecap="butt" stroke-miterlimit="1.45" shape-rendering="geometricPrecision" text-rendering="geometricPrecision" transform="matrix(1,0,0,1,-494,-332)"><rect width="232" height="30" x="539.819" y="400.87" fill="none" clip-path="url(#clipPath2)"/><text x="586.316" y="421.917" stroke="none" clip-path="url(#clipPath2)" font-family="sans-serif" font-size="16" xml:space="preserve">gNMI Service Stub</text></g><g fill="#D4CCE6" stroke="#D4CCE6" shape-rendering="geometricPrecision" text-rendering="geometricPrecision" transform="matrix(1,0,0,1,-494,-332)"><rect width="232" height="179.393" x="917.578" y="347.477" stroke="none" clip-path="url(#clipPath2)"/></g><g stroke-linecap="butt" stroke-miterlimit="1.45" shape-rendering="geometricPrecision" text-rendering="geometricPrecision" transform="matrix(1,0,0,1,-494,-332)"><rect width="232" height="179.393" x="917.578" y="347.477" fill="none" clip-path="url(#clipPath2)"/><text x="977.231" y="374.619" stroke="none" clip-path="url(#clipPath2)" font-family="sans-serif" font-size="16" xml:space="preserve">GnmiPublisher</text></g><g fill="#D4E7CD" stroke="#D4E7CD" shape-rendering="geometricPrecision" text-rendering="geometricPrecision" transform="matrix(1,0,0,1,-494,-332)"><rect width="172.674" height="30" x="947.241" y="383.633" stroke="none" clip-path="url(#clipPath2)"/></g><g stroke-linecap="butt" stroke-miterlimit="1.45" shape-rendering="geometricPrecision" text-rendering="geometricPrecision" transform="matrix(1,0,0,1,-494,-332)"><rect width="172.674" height="30" x="947.241" y="383.633" fill="none" clip-path="url(#clipPath2)"/><text x="980.267" y="403.168" stroke="none" clip-path="url(#clipPath2)" font-family="sans-serif" xml:space="preserve">gNMI event reader</text></g><g fill="#FFF0C5" stroke="#FFF0C5" shape-rendering="geometricPrecision" text-rendering="geometricPrecision" transform="matrix(1,0,0,1,-494,-332)"><rect width="206.076" height="77.24" x="930.54" y="434.69" stroke="none" clip-path="url(#clipPath2)"/></g><g stroke-linecap="butt" stroke-miterlimit="1.45" shape-rendering="geometricPrecision" text-rendering="geometricPrecision" transform="matrix(1,0,0,1,-494,-332)"><rect width="206.076" height="77.24" x="930.54" y="434.69" fill="none" clip-path="url(#clipPath2)"/><text x="990.641" y="456.611" stroke="none" clip-path="url(#clipPath2)" font-family="sans-serif" xml:space="preserve">YangParseTree</text></g><g fill="#D4E7CD" stroke="#D4E7CD" shape-rendering="geometricPrecision" text-rendering="geometricPrecision" transform="matrix(1,0,0,1,-494,-332)"><rect width="172.674" height="30" x="947.241" y="467.959" stroke="none" clip-path="url(#clipPath2)"/></g><g stroke-linecap="butt" stroke-miterlimit="1.45" shape-rendering="geometricPrecision" text-rendering="geometricPrecision" transform="matrix(1,0,0,1,-494,-332)"><rect width="172.674" height="30" x="947.241" y="467.959" fill="none" clip-path="url(#clipPath2)"/><text x="982.098" y="487.494" stroke="none" clip-path="url(#clipPath2)" font-family="sans-serif" xml:space="preserve">gNMI event writer</text></g><g fill="#FFF0C5" stroke="#FFF0C5" shape-rendering="geometricPrecision" text-rendering="geometricPrecision" transform="matrix(1,0,0,1,-494,-332)"><rect width="133.163" height="30" x="1201.124" y="467.959" stroke="none" clip-path="url(#clipPath2)"/></g><g stroke-linecap="butt" stroke-miterlimit="1.45" shape-rendering="geometricPrecision" text-rendering="geometricPrecision" transform="matrix(1,0,0,1,-494,-332)"><rect width="133.163" height="30" x="1201.124" y="467.959" fill="none" clip-path="url(#clipPath2)"/><text x="1209.112" y="487.494" stroke="none" clip-path="url(#clipPath2)" font-family="sans-serif" xml:space="preserve">YangParseTreePaths</text></g><g fill="#C9DEF1" stroke="#C9DEF1" shape-rendering="geometricPrecision" text-rendering="geometricPrecision" transform="matrix(1,0,0,1,-494,-332)"><rect width="232" height="30" x="539.819" y="604.515" stroke="none" clip-path="url(#clipPath2)"/></g><g stroke-linecap="butt" stroke-miterlimit="1.45" shape-rendering="geometricPrecision" text-rendering="geometricPrecision" transform="matrix(1,0,0,1,-494,-332)"><rect width="232" height="30" x="539.819" y="604.515" fill="none" clip-path="url(#clipPath2)"/><text x="594.542" y="625.562" stroke="none" clip-path="url(#clipPath2)" font-family="sans-serif" font-size="16" xml:space="preserve">Switch Interface</text><text x="647.91" y="659.051" stroke="none" clip-path="url(#clipPath2)" font-family="sans-serif" xml:space="preserve">Reference (pointor)</text><text x="645.398" y="689.051" stroke="none" clip-path="url(#clipPath2)" font-family="sans-serif" xml:space="preserve">Call static methods</text><path fill="none" d="M728.8195 494.37 L917.5652 349.2607" clip-path="url(#clipPath2)"/><path fill="none" d="M728.8195 494.37 L917.5741 525.5579" clip-path="url(#clipPath2)"/><path fill="none" d="M947.2413 482.9586 L905.8146 482.9586 L905.8146 398.6334 L939.2413 398.6334" clip-path="url(#clipPath2)"/><path stroke="none" d="M947.2413 398.6334 L935.2413 393.6334 L938.2413 398.6334 L935.2413 403.6334 Z" clip-path="url(#clipPath2)"/><text x="868.309" y="431.198" stroke="none" clip-path="url(#clipPath2)" font-family="sans-serif" xml:space="preserve">gNMI</text><text x="866.932" y="445.331" stroke="none" clip-path="url(#clipPath2)" font-family="sans-serif" xml:space="preserve">event</text><text x="853.18" y="459.464" stroke="none" clip-path="url(#clipPath2)" font-family="sans-serif" xml:space="preserve">channel</text><path fill="none" stroke-dasharray="6 2" d="M1136.6416 482.9586 L1193.0924 482.9586" clip-path="url(#clipPath2)"/><path stroke="none" stroke-dasharray="6 2" d="M1201.0924 482.9586 L1189.0924 477.9586 L1192.0924 482.9586 L1189.0924 487.9586 Z" clip-path="url(#clipPath2)"/><path fill="none" d="M655.8195 526.8699 L655.8195 596.4775" clip-path="url(#clipPath2)"/><path stroke="none" d="M655.8195 604.4775 L660.8195 592.4775 L655.8195 595.4775 L650.8195 592.4775 Z" clip-path="url(#clipPath2)"/><path fill="none" d="M1033.5781 511.9303 L1033.5781 611.323 L779.8427 611.323" clip-path="url(#clipPath2)"/><path stroke="none" d="M771.8427 611.323 L783.8427 616.323 L780.8427 611.323 L783.8427 606.323 Z" clip-path="url(#clipPath2)"/><path fill="none" d="M771.8419 626.5472 L1165.4052 626.5472 L1165.4052 489.7186 L1127.9307 489.7186" clip-path="url(#clipPath2)"/><path stroke="none" d="M1119.9307 489.7186 L1131.9307 494.7186 L1128.9307 489.7186 L1131.9307 484.7186 Z" clip-path="url(#clipPath2)"/><path fill="none" stroke-dasharray="6 2" d="M539.8195 684.5154 L622.5947 684.5154" clip-path="url(#clipPath2)"/><path stroke="none" stroke-dasharray="6 2" d="M630.5947 684.5154 L618.5947 679.5154 L621.5947 684.5154 L618.5947 689.5154 Z" clip-path="url(#clipPath2)"/><path fill="none" d="M539.8195 654.5154 L622.5947 654.5154" clip-path="url(#clipPath2)"/><path stroke="none" d="M630.5947 654.5154 L618.5947 649.5154 L621.5947 654.5154 L618.5947 659.5154 Z" clip-path="url(#clipPath2)"/></g></g></svg>