<svg xmlns="http://www.w3.org/2000/svg" xmlns:xlink="http://www.w3.org/1999/xlink" width="1112" height="528" fill="#000" fill-opacity="1" stroke="#000" stroke-dasharray="none" stroke-dashoffset="0" stroke-linecap="square" stroke-linejoin="miter" stroke-miterlimit="10" stroke-opacity="1" stroke-width="1" color-interpolation="auto" color-rendering="auto" font-family="'Dialog'" font-size="12" font-style="normal" font-weight="normal" image-rendering="auto" shape-rendering="auto" text-rendering="auto"><g><defs id="defs1"><clipPath id="clipPath1" clipPathUnits="userSpaceOnUse"><path d="M0 0 L1112 0 L1112 528 L0 528 L0 0 Z"/></clipPath><clipPath id="clipPath2" clipPathUnits="userSpaceOnUse"><path d="M177 359 L1289 359 L1289 887 L177 887 L177 359 Z"/></clipPath></defs><g fill="#fff" stroke="#fff" shape-rendering="geometricPrecision" text-rendering="geometricPrecision" transform="translate(-177,-359)"><rect width="1112" height="528" x="177" y="359" stroke="none" clip-path="url(#clipPath2)"/></g><g fill="#D4E7CD" stroke="#D4E7CD" shape-rendering="geometricPrecision" text-rendering="geometricPrecision" transform="matrix(1,0,0,1,-177,-359)"><rect width="155" height="22" x="1052" y="647" stroke="none" clip-path="url(#clipPath2)"/></g><g stroke-linecap="butt" stroke-miterlimit="1.45" shape-rendering="geometricPrecision" text-rendering="geometricPrecision" transform="matrix(1,0,0,1,-177,-359)"><rect width="155" height="22" x="1052" y="647" fill="none" clip-path="url(#clipPath2)"/><text x="1060.383" y="662.535" stroke="none" clip-path="url(#clipPath2)" font-family="sans-serif" xml:space="preserve">Poll Handler From Node</text></g><g fill="#D4E7CD" stroke="#D4E7CD" shape-rendering="geometricPrecision" text-rendering="geometricPrecision" transform="matrix(1,0,0,1,-177,-359)"><rect width="155" height="22" x="1027" y="622" stroke="none" clip-path="url(#clipPath2)"/></g><g stroke-linecap="butt" stroke-miterlimit="1.45" shape-rendering="geometricPrecision" text-rendering="geometricPrecision" transform="matrix(1,0,0,1,-177,-359)"><rect width="155" height="22" x="1027" y="622" fill="none" clip-path="url(#clipPath2)"/><text x="1035.383" y="637.535" stroke="none" clip-path="url(#clipPath2)" font-family="sans-serif" xml:space="preserve">Poll Handler From Node</text></g><g fill="#C9DEF1" stroke="#C9DEF1" shape-rendering="geometricPrecision" text-rendering="geometricPrecision" transform="matrix(1,0,0,1,-177,-359)"><rect width="140" height="45" x="294" y="381" stroke="none" clip-path="url(#clipPath2)"/></g><g stroke-linecap="butt" stroke-miterlimit="1.45" shape-rendering="geometricPrecision" text-rendering="geometricPrecision" transform="matrix(1,0,0,1,-177,-359)"><rect width="140" height="45" x="294" y="381" fill="none" clip-path="url(#clipPath2)"/><text x="320.238" y="409.547" stroke="none" clip-path="url(#clipPath2)" font-family="sans-serif" font-size="16" xml:space="preserve">gNMI client</text></g><g fill="#C9DEF1" stroke="#C9DEF1" shape-rendering="geometricPrecision" text-rendering="geometricPrecision" transform="matrix(1,0,0,1,-177,-359)"><rect width="249" height="45" x="239.5" y="589" stroke="none" clip-path="url(#clipPath2)"/></g><g stroke-linecap="butt" stroke-miterlimit="1.45" shape-rendering="geometricPrecision" text-rendering="geometricPrecision" transform="matrix(1,0,0,1,-177,-359)"><rect width="249" height="45" x="239.5" y="589" fill="none" clip-path="url(#clipPath2)"/><text x="268.769" y="617.547" stroke="none" clip-path="url(#clipPath2)" font-family="sans-serif" font-size="16" xml:space="preserve">ConfigMonitoringService</text></g><g fill="#C9DEF1" stroke="#C9DEF1" shape-rendering="geometricPrecision" text-rendering="geometricPrecision" transform="matrix(1,0,0,1,-177,-359)"><rect width="420" height="242" x="789" y="580" stroke="none" clip-path="url(#clipPath2)"/></g><g stroke-linecap="butt" stroke-miterlimit="1.45" shape-rendering="geometricPrecision" text-rendering="geometricPrecision" transform="matrix(1,0,0,1,-177,-359)"><rect width="420" height="242" x="789" y="580" fill="none" clip-path="url(#clipPath2)"/><text x="923.644" y="644.518" stroke="none" clip-path="url(#clipPath2)" font-family="sans-serif" font-size="16" xml:space="preserve">SubscriptionHandle</text></g><g fill="#D4E7CD" stroke="#D4E7CD" shape-rendering="geometricPrecision" text-rendering="geometricPrecision" transform="matrix(1,0,0,1,-177,-359)"><rect width="155" height="22" x="971.5" y="724.75" stroke="none" clip-path="url(#clipPath2)"/></g><g stroke-linecap="butt" stroke-miterlimit="1.45" shape-rendering="geometricPrecision" text-rendering="geometricPrecision" transform="matrix(1,0,0,1,-177,-359)"><rect width="155" height="22" x="971.5" y="724.75" fill="none" clip-path="url(#clipPath2)"/><text x="979.883" y="740.285" stroke="none" clip-path="url(#clipPath2)" font-family="sans-serif" xml:space="preserve">Poll Handler From Node</text></g><g fill="#C9DEF1" stroke="#C9DEF1" shape-rendering="geometricPrecision" text-rendering="geometricPrecision" transform="matrix(1,0,0,1,-177,-359)"><rect width="420" height="242" x="814" y="605" stroke="none" clip-path="url(#clipPath2)"/></g><g stroke-linecap="butt" stroke-miterlimit="1.45" shape-rendering="geometricPrecision" text-rendering="geometricPrecision" transform="matrix(1,0,0,1,-177,-359)"><rect width="420" height="242" x="814" y="605" fill="none" clip-path="url(#clipPath2)"/><text x="948.644" y="665.555" stroke="none" clip-path="url(#clipPath2)" font-family="sans-serif" font-size="16" xml:space="preserve">SubscriptionHandle</text></g><g fill="#D4E7CD" stroke="#D4E7CD" shape-rendering="geometricPrecision" text-rendering="geometricPrecision" transform="matrix(1,0,0,1,-177,-359)"><rect width="155" height="22" x="946.5" y="793" stroke="none" clip-path="url(#clipPath2)"/></g><g stroke-linecap="butt" stroke-miterlimit="1.45" shape-rendering="geometricPrecision" text-rendering="geometricPrecision" transform="matrix(1,0,0,1,-177,-359)"><rect width="155" height="22" x="946.5" y="793" fill="none" clip-path="url(#clipPath2)"/><text x="954.883" y="808.535" stroke="none" clip-path="url(#clipPath2)" font-family="sans-serif" xml:space="preserve">Poll Handler From Node</text></g><g fill="#C9DEF1" stroke="#C9DEF1" shape-rendering="geometricPrecision" text-rendering="geometricPrecision" transform="matrix(1,0,0,1,-177,-359)"><rect width="420" height="242" x="839" y="630" stroke="none" clip-path="url(#clipPath2)"/></g><g stroke-linecap="butt" stroke-miterlimit="1.45" shape-rendering="geometricPrecision" text-rendering="geometricPrecision" transform="matrix(1,0,0,1,-177,-359)"><rect width="420" height="242" x="839" y="630" fill="none" clip-path="url(#clipPath2)"/><text x="973.644" y="666.143" stroke="none" clip-path="url(#clipPath2)" font-family="sans-serif" font-size="16" xml:space="preserve">SubscriptionHandle</text></g><g fill="#D4E7CD" stroke="#D4E7CD" shape-rendering="geometricPrecision" text-rendering="geometricPrecision" transform="matrix(1,0,0,1,-177,-359)"><rect width="155" height="22" x="971.5" y="825" stroke="none" clip-path="url(#clipPath2)"/></g><g stroke-linecap="butt" stroke-miterlimit="1.45" shape-rendering="geometricPrecision" text-rendering="geometricPrecision" transform="matrix(1,0,0,1,-177,-359)"><rect width="155" height="22" x="971.5" y="825" fill="none" clip-path="url(#clipPath2)"/><text x="979.883" y="840.535" stroke="none" clip-path="url(#clipPath2)" font-family="sans-serif" xml:space="preserve">Poll Handler From Node</text></g><g fill="#D4E7CD" stroke="#D4E7CD" shape-rendering="geometricPrecision" text-rendering="geometricPrecision" transform="matrix(1,0,0,1,-177,-359)"><rect width="155" height="22" x="971.5" y="724.75" stroke="none" clip-path="url(#clipPath2)"/></g><g stroke-linecap="butt" stroke-miterlimit="1.45" shape-rendering="geometricPrecision" text-rendering="geometricPrecision" transform="matrix(1,0,0,1,-177,-359)"><rect width="155" height="22" x="971.5" y="724.75" fill="none" clip-path="url(#clipPath2)"/><text x="973.024" y="740.285" stroke="none" clip-path="url(#clipPath2)" font-family="sans-serif" xml:space="preserve">In-place subscribe stream</text><text x="869.236" y="573.922" stroke="none" clip-path="url(#clipPath2)" font-family="sans-serif" font-size="16" xml:space="preserve">Subscription handles (one per path)</text><text x="202.215" y="504.535" stroke="none" clip-path="url(#clipPath2)" font-family="sans-serif" xml:space="preserve">1 - Send GetRequest</text><text x="495.75" y="689.821" stroke="none" clip-path="url(#clipPath2)" font-family="sans-serif" xml:space="preserve">3 - Creates handles with in-place streams</text><text x="453.889" y="790.535" fill="red" stroke="none" clip-path="url(#clipPath2)" font-family="sans-serif" xml:space="preserve">4 - Send PollEvent to handles</text><text x="977.003" y="796.285" fill="red" stroke="none" clip-path="url(#clipPath2)" font-family="sans-serif" xml:space="preserve">5 - Send value to stream</text><text x="964.957" y="394.525" fill="red" stroke="none" clip-path="url(#clipPath2)" font-family="sans-serif" xml:space="preserve">6 - Add value to response</text></g><g fill="#D4E7CD" stroke="#D4E7CD" shape-rendering="geometricPrecision" text-rendering="geometricPrecision" transform="matrix(1,0,0,1,-177,-359)"><rect width="155" height="22" x="634.47" y="391" stroke="none" clip-path="url(#clipPath2)"/></g><g stroke-linecap="butt" stroke-miterlimit="1.45" shape-rendering="geometricPrecision" text-rendering="geometricPrecision" transform="matrix(1,0,0,1,-177,-359)"><rect width="155" height="22" x="634.47" y="391" fill="none" clip-path="url(#clipPath2)"/><text x="674.265" y="406.535" stroke="none" clip-path="url(#clipPath2)" font-family="sans-serif" xml:space="preserve">GetResponse</text><text x="579.836" y="624.535" stroke="none" clip-path="url(#clipPath2)" font-family="sans-serif" xml:space="preserve">2 - Create Get Response</text><text x="399.984" y="506.469" fill="red" stroke="none" clip-path="url(#clipPath2)" font-family="sans-serif" xml:space="preserve">7 - Send GetResponse</text><path fill="none" d="M326.8179 426.0223 L326.8179 580.9919" clip-path="url(#clipPath2)"/><path stroke="none" d="M326.8179 588.9919 L331.8179 576.9919 L326.8179 579.9919 L321.8179 576.9919 Z" clip-path="url(#clipPath2)"/><path fill="none" d="M424.1932 634.0019 L424.1932 701 L780.9554 701" clip-path="url(#clipPath2)"/><path stroke="none" d="M788.9554 701 L776.9554 696 L779.9554 701 L776.9554 706 Z" clip-path="url(#clipPath2)"/><path fill="none" d="M423.9624 634.0059 L423.9624 726 L805.9524 726" clip-path="url(#clipPath2)"/><path stroke="none" d="M813.9524 726 L801.9524 721 L804.9524 726 L801.9524 731 Z" clip-path="url(#clipPath2)"/><path fill="none" stroke="red" d="M364 634 L364 794.1918 L813.9819 794.1918" clip-path="url(#clipPath2)"/><path fill="none" d="M424.1932 634.0116 L424.1932 692.1535 L813.9925 692.1535" clip-path="url(#clipPath2)"/><path fill="none" d="M423.9624 634.0179 L423.9624 751 L830.9747 751" clip-path="url(#clipPath2)"/><path stroke="none" d="M838.9747 751 L826.9747 746 L829.9747 751 L826.9747 756 Z" clip-path="url(#clipPath2)"/><path fill="none" stroke="red" d="M364 634 L364 815.999 L838.9609 815.999" clip-path="url(#clipPath2)"/><path fill="none" d="M423.4744 634.0386 L423.4744 715.0998 L838.9811 715.0998" clip-path="url(#clipPath2)"/><path fill="none" stroke="red" d="M364 634 L364 836 L963.4629 836" clip-path="url(#clipPath2)"/><path fill="red" stroke="none" d="M971.4629 836 L959.4629 831 L962.4629 836 L959.4629 841 Z" clip-path="url(#clipPath2)"/><path fill="none" stroke="red" d="M1049 824.9618 L1049 754.75" clip-path="url(#clipPath2)"/><path fill="red" stroke="none" d="M1049 746.75 L1044 758.75 L1049 755.75 L1054 758.75 Z" clip-path="url(#clipPath2)"/><path fill="none" d="M423.9624 634.0446 L423.9624 735.75 L963.4666 735.75" clip-path="url(#clipPath2)"/><path stroke="none" d="M971.4666 735.75 L959.4666 730.75 L962.4666 735.75 L959.4666 740.75 Z" clip-path="url(#clipPath2)"/><path fill="none" stroke="red" d="M1126.5 735.75 L1273 735.75 L1273 402 L797.47 402" clip-path="url(#clipPath2)"/><path fill="red" stroke="none" d="M789.47 402 L801.47 407 L798.47 402 L801.47 397 Z" clip-path="url(#clipPath2)"/><path fill="none" stroke="red" d="M1246.2827 629.9865 L1246.2827 402 L797.47 402" clip-path="url(#clipPath2)"/><path fill="red" stroke="none" d="M789.47 402 L801.47 407 L798.47 402 L801.47 397 Z" clip-path="url(#clipPath2)"/><path fill="none" stroke="red" d="M1221.783 604.9695 L1221.783 402 L797.47 402" clip-path="url(#clipPath2)"/><path fill="red" stroke="none" d="M789.47 402 L801.47 407 L798.47 402 L801.47 397 Z" clip-path="url(#clipPath2)"/><path fill="none" d="M488.5 611.5 L757 611.5 L757 421.0235" clip-path="url(#clipPath2)"/><path stroke="none" d="M757 413.0235 L752 425.0235 L757 422.0235 L762 425.0235 Z" clip-path="url(#clipPath2)"/><path fill="none" stroke="red" d="M660.6089 413.0276 L660.6089 596.8045 L394.0807 596.8045 L394.0807 434.0012" clip-path="url(#clipPath2)"/><path fill="red" stroke="none" d="M394.0807 426.0012 L389.0807 438.0012 L394.0807 435.0012 L399.0807 438.0012 Z" clip-path="url(#clipPath2)"/></g></g></svg>