<svg xmlns="http://www.w3.org/2000/svg" xmlns:xlink="http://www.w3.org/1999/xlink" width="853" height="551" fill="#000" fill-opacity="1" stroke="#000" stroke-dasharray="none" stroke-dashoffset="0" stroke-linecap="square" stroke-linejoin="miter" stroke-miterlimit="10" stroke-opacity="1" stroke-width="1" color-interpolation="auto" color-rendering="auto" font-family="'Dialog'" font-size="12" font-style="normal" font-weight="normal" image-rendering="auto" shape-rendering="auto" text-rendering="auto"><g><defs id="defs1"><clipPath id="clipPath1" clipPathUnits="userSpaceOnUse"><path d="M0 0 L853 0 L853 551 L0 551 L0 0 Z"/></clipPath><clipPath id="clipPath2" clipPathUnits="userSpaceOnUse"><path d="M-15 -15 L838 -15 L838 536 L-15 536 L-15 -15 Z"/></clipPath></defs><g fill="#fff" stroke="#fff" shape-rendering="geometricPrecision" text-rendering="geometricPrecision" transform="translate(15,15)"><rect width="853" height="551" x="-15" y="-15" stroke="none" clip-path="url(#clipPath2)"/></g><g fill="#C9DEF1" stroke="#C9DEF1" shape-rendering="geometricPrecision" text-rendering="geometricPrecision" transform="matrix(1,0,0,1,15,15)"><rect width="152" height="57" x="0" y="0" stroke="none" clip-path="url(#clipPath2)" rx="4" ry="4"/></g><g stroke-linecap="butt" stroke-miterlimit="1.45" shape-rendering="geometricPrecision" text-rendering="geometricPrecision" transform="matrix(1,0,0,1,15,15)"><rect width="152" height="57" x="0" y="0" fill="none" clip-path="url(#clipPath2)" rx="4" ry="4"/><text x="34.582" y="34.547" stroke="none" clip-path="url(#clipPath2)" font-family="sans-serif" font-size="16" xml:space="preserve">GnmiEvent</text></g><g fill="#C9DEF1" stroke="#C9DEF1" shape-rendering="geometricPrecision" text-rendering="geometricPrecision" transform="matrix(1,0,0,1,15,15)"><rect width="152" height="57" x="0" y="97" stroke="none" clip-path="url(#clipPath2)" rx="4" ry="4"/></g><g stroke-linecap="butt" stroke-miterlimit="1.45" shape-rendering="geometricPrecision" text-rendering="geometricPrecision" transform="matrix(1,0,0,1,15,15)"><rect width="152" height="57" x="0" y="97" fill="none" clip-path="url(#clipPath2)" rx="4" ry="4"/><text x="34.582" y="122.125" stroke="none" clip-path="url(#clipPath2)" font-family="sans-serif" font-size="16" xml:space="preserve">GnmiEvent</text><text x="46.68" y="140.969" stroke="none" clip-path="url(#clipPath2)" font-family="sans-serif" font-size="16" xml:space="preserve">Process</text></g><g fill="#C9DEF1" stroke="#C9DEF1" shape-rendering="geometricPrecision" text-rendering="geometricPrecision" transform="matrix(1,0,0,1,15,15)"><rect width="152" height="57" x="258" y="388" stroke="none" clip-path="url(#clipPath2)" rx="4" ry="4"/></g><g stroke-linecap="butt" stroke-miterlimit="1.45" shape-rendering="geometricPrecision" text-rendering="geometricPrecision" transform="matrix(1,0,0,1,15,15)"><rect width="152" height="57" x="258" y="388" fill="none" clip-path="url(#clipPath2)" rx="4" ry="4"/><text x="290.539" y="422.547" stroke="none" clip-path="url(#clipPath2)" font-family="sans-serif" font-size="16" xml:space="preserve">TimerEvent</text></g><g fill="#C9DEF1" stroke="#C9DEF1" shape-rendering="geometricPrecision" text-rendering="geometricPrecision" transform="matrix(1,0,0,1,15,15)"><rect width="152" height="57" x="86" y="388" stroke="none" clip-path="url(#clipPath2)" rx="4" ry="4"/></g><g stroke-linecap="butt" stroke-miterlimit="1.45" shape-rendering="geometricPrecision" text-rendering="geometricPrecision" transform="matrix(1,0,0,1,15,15)"><rect width="152" height="57" x="86" y="388" fill="none" clip-path="url(#clipPath2)" rx="4" ry="4"/><text x="127.148" y="422.547" stroke="none" clip-path="url(#clipPath2)" font-family="sans-serif" font-size="16" xml:space="preserve">PollEvent</text></g><g fill="#C9DEF1" stroke="#C9DEF1" shape-rendering="geometricPrecision" text-rendering="geometricPrecision" transform="matrix(1,0,0,1,15,15)"><rect width="152" height="57" x="554" y="194" stroke="none" clip-path="url(#clipPath2)" rx="4" ry="4"/></g><g stroke-linecap="butt" stroke-miterlimit="1.45" shape-rendering="geometricPrecision" text-rendering="geometricPrecision" transform="matrix(1,0,0,1,15,15)"><rect width="152" height="57" x="554" y="194" fill="none" clip-path="url(#clipPath2)" rx="4" ry="4"/><text x="586.117" y="228.547" stroke="none" clip-path="url(#clipPath2)" font-family="sans-serif" font-size="16" xml:space="preserve">AlarmEvent</text></g><g fill="#C9DEF1" stroke="#C9DEF1" shape-rendering="geometricPrecision" text-rendering="geometricPrecision" transform="matrix(1,0,0,1,15,15)"><rect width="152" height="57" x="178.75" y="194" stroke="none" clip-path="url(#clipPath2)" rx="4" ry="4"/></g><g stroke-linecap="butt" stroke-miterlimit="1.45" shape-rendering="geometricPrecision" text-rendering="geometricPrecision" transform="matrix(1,0,0,1,15,15)"><rect width="152" height="57" x="178.75" y="194" fill="none" clip-path="url(#clipPath2)" rx="4" ry="4"/><text x="185.578" y="228.547" stroke="none" clip-path="url(#clipPath2)" font-family="sans-serif" font-size="16" xml:space="preserve">PerPortGnmiEvent</text></g><g fill="#C9DEF1" stroke="#C9DEF1" shape-rendering="geometricPrecision" text-rendering="geometricPrecision" transform="matrix(1,0,0,1,15,15)"><rect width="139" height="57" x="430" y="388" stroke="none" clip-path="url(#clipPath2)" rx="4" ry="4"/></g><g stroke-linecap="butt" stroke-miterlimit="1.45" shape-rendering="geometricPrecision" text-rendering="geometricPrecision" transform="matrix(1,0,0,1,15,15)"><rect width="139" height="57" x="430" y="388" fill="none" clip-path="url(#clipPath2)" rx="4" ry="4"/><text x="440.988" y="413.125" stroke="none" clip-path="url(#clipPath2)" font-family="sans-serif" font-size="16" xml:space="preserve">ConfigHasBeen</text><text x="450.688" y="431.969" stroke="none" clip-path="url(#clipPath2)" font-family="sans-serif" font-size="16" xml:space="preserve">PushedEvent</text></g><g fill="#C9DEF1" stroke="#C9DEF1" shape-rendering="geometricPrecision" text-rendering="geometricPrecision" transform="matrix(1,0,0,1,15,15)"><rect width="173" height="57" x="650" y="291" stroke="none" clip-path="url(#clipPath2)" rx="4" ry="4"/></g><g stroke-linecap="butt" stroke-miterlimit="1.45" shape-rendering="geometricPrecision" text-rendering="geometricPrecision" transform="matrix(1,0,0,1,15,15)"><rect width="173" height="57" x="650" y="291" fill="none" clip-path="url(#clipPath2)" rx="4" ry="4"/><text x="663.254" y="325.547" stroke="none" clip-path="url(#clipPath2)" font-family="sans-serif" font-size="16" xml:space="preserve">MemoryErrorAlarm</text></g><g fill="#C9DEF1" stroke="#C9DEF1" shape-rendering="geometricPrecision" text-rendering="geometricPrecision" transform="matrix(1,0,0,1,15,15)"><rect width="173" height="57" x="437" y="291" stroke="none" clip-path="url(#clipPath2)" rx="4" ry="4"/></g><g stroke-linecap="butt" stroke-miterlimit="1.45" shape-rendering="geometricPrecision" text-rendering="geometricPrecision" transform="matrix(1,0,0,1,15,15)"><rect width="173" height="57" x="437" y="291" fill="none" clip-path="url(#clipPath2)" rx="4" ry="4"/><text x="448.91" y="316.125" stroke="none" clip-path="url(#clipPath2)" font-family="sans-serif" font-size="16" xml:space="preserve">FlowProgrammaing</text><text x="462.492" y="334.969" stroke="none" clip-path="url(#clipPath2)" font-family="sans-serif" font-size="16" xml:space="preserve">ExceptionAlarm</text></g><g fill="#C9DEF1" stroke="#C9DEF1" shape-rendering="geometricPrecision" text-rendering="geometricPrecision" transform="matrix(1,0,0,1,15,15)"><rect width="139" height="57" x="278" y="291" stroke="none" clip-path="url(#clipPath2)" rx="4" ry="4"/></g><g stroke-linecap="butt" stroke-miterlimit="1.45" shape-rendering="geometricPrecision" text-rendering="geometricPrecision" transform="matrix(1,0,0,1,15,15)"><rect width="139" height="57" x="278" y="291" fill="none" clip-path="url(#clipPath2)" rx="4" ry="4"/><text x="293.75" y="316.125" stroke="none" clip-path="url(#clipPath2)" font-family="sans-serif" font-size="16" xml:space="preserve">PortOperState</text><text x="292.246" y="334.969" stroke="none" clip-path="url(#clipPath2)" font-family="sans-serif" font-size="16" xml:space="preserve">ChangedEvent</text></g><g fill="#C9DEF1" stroke="#C9DEF1" shape-rendering="geometricPrecision" text-rendering="geometricPrecision" transform="matrix(1,0,0,1,15,15)"><rect width="152" height="57" x="86" y="291" stroke="none" clip-path="url(#clipPath2)" rx="4" ry="4"/></g><g stroke-linecap="butt" stroke-miterlimit="1.45" shape-rendering="geometricPrecision" text-rendering="geometricPrecision" transform="matrix(1,0,0,1,15,15)"><rect width="152" height="57" x="86" y="291" fill="none" clip-path="url(#clipPath2)" rx="4" ry="4"/><text x="101.93" y="316.125" stroke="none" clip-path="url(#clipPath2)" font-family="sans-serif" font-size="16" xml:space="preserve">PortAdminState</text><text x="106.746" y="334.969" stroke="none" clip-path="url(#clipPath2)" font-family="sans-serif" font-size="16" xml:space="preserve">ChangedEvent</text><text x="240.313" y="325.547" stroke="none" clip-path="url(#clipPath2)" font-family="sans-serif" font-size="16" xml:space="preserve">......</text></g><g fill="#C9DEF1" stroke="#C9DEF1" shape-rendering="geometricPrecision" text-rendering="geometricPrecision" transform="matrix(1,0,0,1,15,15)"><rect width="30" height="30" x="0" y="485" stroke="none" clip-path="url(#clipPath2)" rx="4" ry="4"/></g><g stroke-linecap="butt" stroke-miterlimit="1.45" shape-rendering="geometricPrecision" text-rendering="geometricPrecision" transform="matrix(1,0,0,1,15,15)"><rect width="30" height="30" x="0" y="485" fill="none" clip-path="url(#clipPath2)" rx="4" ry="4"/></g><g fill="#C9DEF1" stroke="#C9DEF1" shape-rendering="geometricPrecision" text-rendering="geometricPrecision" transform="matrix(1,0,0,1,15,15)"><rect width="30" height="30" x="207.75" y="485" stroke="none" clip-path="url(#clipPath2)" rx="4" ry="4"/></g><g stroke-linecap="butt" stroke-miterlimit="1.45" shape-rendering="geometricPrecision" text-rendering="geometricPrecision" transform="matrix(1,0,0,1,15,15)"><rect width="30" height="30" x="207.75" y="485" fill="none" clip-path="url(#clipPath2)" rx="4" ry="4"/><path fill="none" d="M76 97.0347 L76 64.978" clip-path="url(#clipPath2)"/><path stroke="none" d="M76 56.978 L71 68.978 L76 65.978 L81 68.978 Z" clip-path="url(#clipPath2)"/><path fill="none" d="M334 388.0347 L334 368 L76 368 L76 162.0068" clip-path="url(#clipPath2)"/><path stroke="none" d="M76 154.0068 L71 166.0068 L76 163.0068 L81 166.0068 Z" clip-path="url(#clipPath2)"/><path fill="none" d="M162 388.0347 L162 368 L76 368 L76 162.0068" clip-path="url(#clipPath2)"/><path stroke="none" d="M76 154.0068 L71 166.0068 L76 163.0068 L81 166.0068 Z" clip-path="url(#clipPath2)"/><path fill="none" d="M630 194.0347 L630 174 L76 174 L76 161.9653" clip-path="url(#clipPath2)"/><path stroke="none" d="M76 153.9653 L71 165.9653 L76 162.9653 L81 165.9653 Z" clip-path="url(#clipPath2)"/><path fill="none" d="M254.75 194.0347 L254.75 174 L76 174 L76 161.9653" clip-path="url(#clipPath2)"/><path stroke="none" d="M76 153.9653 L71 165.9653 L76 162.9653 L81 165.9653 Z" clip-path="url(#clipPath2)"/><path fill="none" d="M499.5 388.0347 L499.5 368 L76 368 L76 162.0068" clip-path="url(#clipPath2)"/><path stroke="none" d="M76 154.0068 L71 166.0068 L76 163.0068 L81 166.0068 Z" clip-path="url(#clipPath2)"/><path fill="none" d="M736.5 291.0347 L736.5 271 L630 271 L630 258.9653" clip-path="url(#clipPath2)"/><path stroke="none" d="M630 250.9653 L625 262.9653 L630 259.9653 L635 262.9653 Z" clip-path="url(#clipPath2)"/><path fill="none" d="M523.5 291.0347 L523.5 271 L630 271 L630 258.9653" clip-path="url(#clipPath2)"/><path stroke="none" d="M630 250.9653 L625 262.9653 L630 259.9653 L635 262.9653 Z" clip-path="url(#clipPath2)"/><path fill="none" d="M347.5 291.0347 L347.5 271 L254.75 271 L254.75 258.9653" clip-path="url(#clipPath2)"/><path stroke="none" d="M254.75 250.9653 L249.75 262.9653 L254.75 259.9653 L259.75 262.9653 Z" clip-path="url(#clipPath2)"/><path fill="none" d="M162 291.0347 L162 271 L254.75 271 L254.75 258.9653" clip-path="url(#clipPath2)"/><path stroke="none" d="M254.75 250.9653 L249.75 262.9653 L254.75 259.9653 L259.75 262.9653 Z" clip-path="url(#clipPath2)"/><path fill="none" d="M30 500 L199.7066 500" clip-path="url(#clipPath2)"/><path stroke="none" d="M207.7066 500 L195.7066 495 L198.7066 500 L195.7066 505 Z" clip-path="url(#clipPath2)"/><text x="88.106" y="496.625" stroke="none" clip-path="url(#clipPath2)" font-family="sans-serif" font-size="16" xml:space="preserve">Extends</text></g></g></svg>