<svg xmlns="http://www.w3.org/2000/svg" xmlns:xlink="http://www.w3.org/1999/xlink" width="880" height="365" fill="#000" fill-opacity="1" stroke="#000" stroke-dasharray="none" stroke-dashoffset="0" stroke-linecap="square" stroke-linejoin="miter" stroke-miterlimit="10" stroke-opacity="1" stroke-width="1" color-interpolation="auto" color-rendering="auto" font-family="'Dialog'" font-size="12" font-style="normal" font-weight="normal" image-rendering="auto" shape-rendering="auto" text-rendering="auto"><g><defs id="defs1"><clipPath id="clipPath1" clipPathUnits="userSpaceOnUse"><path d="M0 0 L880 0 L880 365 L0 365 L0 0 Z"/></clipPath><clipPath id="clipPath2" clipPathUnits="userSpaceOnUse"><path d="M597 206 L1477 206 L1477 571 L597 571 L597 206 Z"/></clipPath></defs><g fill="#fff" stroke="#fff" shape-rendering="geometricPrecision" text-rendering="geometricPrecision" transform="translate(-597,-206)"><rect width="880" height="365" x="597" y="206" stroke="none" clip-path="url(#clipPath2)"/></g><g fill="#F5A860" stroke="#F5A860" shape-rendering="geometricPrecision" text-rendering="geometricPrecision" transform="matrix(1,0,0,1,-597,-206)"><circle cx="1130" cy="265.5" r="21" stroke="none" clip-path="url(#clipPath2)"/></g><g stroke-linecap="butt" stroke-miterlimit="1.45" shape-rendering="geometricPrecision" text-rendering="geometricPrecision" transform="matrix(1,0,0,1,-597,-206)"><circle cx="1130" cy="265.5" r="21" fill="none" clip-path="url(#clipPath2)"/></g><g fill="#C9DEF1" stroke="#C9DEF1" shape-rendering="geometricPrecision" text-rendering="geometricPrecision" transform="matrix(1,0,0,1,-597,-206)"><rect width="164" height="30.793" x="766.945" y="247" stroke="none" clip-path="url(#clipPath2)"/></g><g stroke-linecap="butt" stroke-miterlimit="1.45" shape-rendering="geometricPrecision" text-rendering="geometricPrecision" transform="matrix(1,0,0,1,-597,-206)"><rect width="164" height="30.793" x="766.945" y="247" fill="none" clip-path="url(#clipPath2)"/><text x="805.183" y="268.443" stroke="none" clip-path="url(#clipPath2)" font-family="sans-serif" font-size="16" xml:space="preserve">gNMI client</text></g><g fill="#C9DEF1" stroke="#C9DEF1" shape-rendering="geometricPrecision" text-rendering="geometricPrecision" transform="matrix(1,0,0,1,-597,-206)"><rect width="244" height="30.793" x="726.945" y="404" stroke="none" clip-path="url(#clipPath2)"/></g><g stroke-linecap="butt" stroke-miterlimit="1.45" shape-rendering="geometricPrecision" text-rendering="geometricPrecision" transform="matrix(1,0,0,1,-597,-206)"><rect width="244" height="30.793" x="726.945" y="404" fill="none" clip-path="url(#clipPath2)"/><text x="753.715" y="425.443" stroke="none" clip-path="url(#clipPath2)" font-family="sans-serif" font-size="16" xml:space="preserve">ConfigMonitoringService</text></g><g fill="#F5A860" stroke="#F5A860" shape-rendering="geometricPrecision" text-rendering="geometricPrecision" transform="matrix(1,0,0,1,-597,-206)"><circle cx="1088" cy="307.5" r="21" stroke="none" clip-path="url(#clipPath2)"/></g><g stroke-linecap="butt" stroke-miterlimit="1.45" shape-rendering="geometricPrecision" text-rendering="geometricPrecision" transform="matrix(1,0,0,1,-597,-206)"><circle cx="1088" cy="307.5" r="21" fill="none" clip-path="url(#clipPath2)"/></g><g fill="#F5A860" stroke="#F5A860" shape-rendering="geometricPrecision" text-rendering="geometricPrecision" transform="matrix(1,0,0,1,-597,-206)"><circle cx="1046" cy="349.5" r="21" stroke="none" clip-path="url(#clipPath2)"/></g><g stroke-linecap="butt" stroke-miterlimit="1.45" shape-rendering="geometricPrecision" text-rendering="geometricPrecision" transform="matrix(1,0,0,1,-597,-206)"><circle cx="1046" cy="349.5" r="21" fill="none" clip-path="url(#clipPath2)"/></g><g fill="#F5A860" stroke="#F5A860" shape-rendering="geometricPrecision" text-rendering="geometricPrecision" transform="matrix(1,0,0,1,-597,-206)"><circle cx="1130" cy="349.5" r="21" stroke="none" clip-path="url(#clipPath2)"/></g><g stroke-linecap="butt" stroke-miterlimit="1.45" shape-rendering="geometricPrecision" text-rendering="geometricPrecision" transform="matrix(1,0,0,1,-597,-206)"><circle cx="1130" cy="349.5" r="21" fill="none" clip-path="url(#clipPath2)"/></g><g fill="#F5A860" stroke="#F5A860" shape-rendering="geometricPrecision" text-rendering="geometricPrecision" transform="matrix(1,0,0,1,-597,-206)"><circle cx="1172" cy="307.5" r="21" stroke="none" clip-path="url(#clipPath2)"/></g><g stroke-linecap="butt" stroke-miterlimit="1.45" shape-rendering="geometricPrecision" text-rendering="geometricPrecision" transform="matrix(1,0,0,1,-597,-206)"><circle cx="1172" cy="307.5" r="21" fill="none" clip-path="url(#clipPath2)"/></g><g fill="#F5A860" stroke="#F5A860" shape-rendering="geometricPrecision" text-rendering="geometricPrecision" transform="matrix(1,0,0,1,-597,-206)"><circle cx="1214" cy="349.5" r="21" stroke="none" clip-path="url(#clipPath2)"/></g><g stroke-linecap="butt" stroke-miterlimit="1.45" shape-rendering="geometricPrecision" text-rendering="geometricPrecision" transform="matrix(1,0,0,1,-597,-206)"><circle cx="1214" cy="349.5" r="21" fill="none" clip-path="url(#clipPath2)"/></g><g fill="#F5A860" stroke="#F5A860" shape-rendering="geometricPrecision" text-rendering="geometricPrecision" transform="matrix(1,0,0,1,-597,-206)"><circle cx="1256" cy="391.5" r="21" stroke="none" clip-path="url(#clipPath2)"/></g><g stroke-linecap="butt" stroke-miterlimit="1.45" shape-rendering="geometricPrecision" text-rendering="geometricPrecision" transform="matrix(1,0,0,1,-597,-206)"><circle cx="1256" cy="391.5" r="21" fill="none" clip-path="url(#clipPath2)"/></g><g fill="#C9DEF1" stroke="#C9DEF1" shape-rendering="geometricPrecision" text-rendering="geometricPrecision" transform="matrix(1,0,0,1,-597,-206)"><rect width="164" height="124" x="1144" y="432" stroke="none" clip-path="url(#clipPath2)"/><rect width="126" height="30" x="1162.5" y="449" fill="#D4E7CD" stroke="none" clip-path="url(#clipPath2)"/></g><g stroke-linecap="butt" stroke-miterlimit="1.45" shape-rendering="geometricPrecision" text-rendering="geometricPrecision" transform="matrix(1,0,0,1,-597,-206)"><rect width="126" height="30" x="1162.5" y="449" fill="none" clip-path="url(#clipPath2)"/><text x="1172.048" y="468.535" stroke="none" clip-path="url(#clipPath2)" font-family="sans-serif" xml:space="preserve">on update handler</text></g><g fill="#D4E7CD" stroke="#D4E7CD" shape-rendering="geometricPrecision" text-rendering="geometricPrecision" transform="matrix(1,0,0,1,-597,-206)"><rect width="126" height="30" x="1162.5" y="479" stroke="none" clip-path="url(#clipPath2)"/></g><g stroke-linecap="butt" stroke-miterlimit="1.45" shape-rendering="geometricPrecision" text-rendering="geometricPrecision" transform="matrix(1,0,0,1,-597,-206)"><rect width="126" height="30" x="1162.5" y="479" fill="none" clip-path="url(#clipPath2)"/><text x="1171.187" y="498.535" stroke="none" clip-path="url(#clipPath2)" font-family="sans-serif" xml:space="preserve">on replace handler</text></g><g fill="#D4E7CD" stroke="#D4E7CD" shape-rendering="geometricPrecision" text-rendering="geometricPrecision" transform="matrix(1,0,0,1,-597,-206)"><rect width="126" height="30" x="1162.5" y="509" stroke="none" clip-path="url(#clipPath2)"/></g><g stroke-linecap="butt" stroke-miterlimit="1.45" shape-rendering="geometricPrecision" text-rendering="geometricPrecision" transform="matrix(1,0,0,1,-597,-206)"><rect width="126" height="30" x="1162.5" y="509" fill="none" clip-path="url(#clipPath2)"/><text x="1174.441" y="528.535" stroke="none" clip-path="url(#clipPath2)" font-family="sans-serif" xml:space="preserve">on delete handler</text></g><g fill="#C9DEF1" stroke="#C9DEF1" shape-rendering="geometricPrecision" text-rendering="geometricPrecision"><path fill-rule="evenodd" stroke="none" d="M1255.9993 412.4998 L1270.9993 434.7925 L1240.9993 434.7925 Z" clip-path="url(#clipPath2)" transform="matrix(1,0,0,1,-597,-206)"/></g><g stroke-linecap="butt" stroke-miterlimit="1.45" font-family="sans-serif" shape-rendering="geometricPrecision" text-rendering="geometricPrecision"><text x="1087.063" y="234.968" stroke="none" clip-path="url(#clipPath2)" transform="matrix(1,0,0,1,-597,-206)" xml:space="preserve">YangParseTree</text><text x="1017.893" y="460.437" stroke="none" clip-path="url(#clipPath2)" transform="matrix(1,0,0,1,-597,-206)" xml:space="preserve">Update request</text><text x="1016.127" y="490.437" stroke="none" clip-path="url(#clipPath2)" transform="matrix(1,0,0,1,-597,-206)" xml:space="preserve">Replace request</text><text x="1020.003" y="520.437" stroke="none" clip-path="url(#clipPath2)" transform="matrix(1,0,0,1,-597,-206)" xml:space="preserve">Delete request</text><path fill="none" d="M848.9453 277.7926 L848.9453 396" clip-path="url(#clipPath2)" transform="matrix(1,0,0,1,-597,-206)"/><path stroke="none" d="M848.9453 404 L853.9453 392 L848.9453 395 L843.9453 392 Z" clip-path="url(#clipPath2)" transform="matrix(1,0,0,1,-597,-206)"/><text x="744.303" y="347.136" stroke="none" clip-path="url(#clipPath2)" transform="matrix(1,0,0,1,-597,-206)" xml:space="preserve">gNMI SetRequest</text><path fill="none" d="M1115.1508 280.3492 L1102.8492 292.6508" clip-path="url(#clipPath2)" transform="matrix(1,0,0,1,-597,-206)"/><path fill="none" d="M1073.1508 322.3492 L1060.8492 334.6508" clip-path="url(#clipPath2)" transform="matrix(1,0,0,1,-597,-206)"/><path fill="none" d="M1144.8492 280.3492 L1157.1508 292.6508" clip-path="url(#clipPath2)" transform="matrix(1,0,0,1,-597,-206)"/><path fill="none" d="M1157.1508 322.3492 L1144.8492 334.6508" clip-path="url(#clipPath2)" transform="matrix(1,0,0,1,-597,-206)"/><path fill="none" d="M1186.8492 322.3492 L1199.1508 334.6508" clip-path="url(#clipPath2)" transform="matrix(1,0,0,1,-597,-206)"/><path fill="none" d="M1228.8492 364.3492 L1241.1508 376.6508" clip-path="url(#clipPath2)" transform="matrix(1,0,0,1,-597,-206)"/><path fill="none" d="M908.1678 434.7954 L908.1678 464 L1154.469 464" clip-path="url(#clipPath2)" transform="matrix(1,0,0,1,-597,-206)"/><path stroke="none" d="M1162.469 464 L1150.469 459 L1153.469 464 L1150.469 469 Z" clip-path="url(#clipPath2)" transform="matrix(1,0,0,1,-597,-206)"/><path fill="none" d="M848.9453 434.7926 L848.9453 494 L1154.4617 494" clip-path="url(#clipPath2)" transform="matrix(1,0,0,1,-597,-206)"/><path stroke="none" d="M1162.4617 494 L1150.4617 489 L1153.4617 494 L1150.4617 499 Z" clip-path="url(#clipPath2)" transform="matrix(1,0,0,1,-597,-206)"/><path fill="none" d="M796.7715 434.7947 L796.7715 524 L1154.4553 524" clip-path="url(#clipPath2)" transform="matrix(1,0,0,1,-597,-206)"/><path stroke="none" d="M1162.4553 524 L1150.4553 519 L1153.4553 524 L1150.4553 529 Z" clip-path="url(#clipPath2)" transform="matrix(1,0,0,1,-597,-206)"/></g></g></svg>