<svg xmlns="http://www.w3.org/2000/svg" xmlns:xlink="http://www.w3.org/1999/xlink" width="1184" height="711" fill="#000" fill-opacity="1" stroke="#000" stroke-dasharray="none" stroke-dashoffset="0" stroke-linecap="square" stroke-linejoin="miter" stroke-miterlimit="10" stroke-opacity="1" stroke-width="1" color-interpolation="auto" color-rendering="auto" font-family="'Dialog'" font-size="12" font-style="normal" font-weight="normal" image-rendering="auto" shape-rendering="auto" text-rendering="auto"><g><defs id="defs1"><clipPath id="clipPath1" clipPathUnits="userSpaceOnUse"><path d="M0 0 L1184 0 L1184 711 L0 711 L0 0 Z"/></clipPath><clipPath id="clipPath2" clipPathUnits="userSpaceOnUse"><path d="M226 194 L1410 194 L1410 905 L226 905 L226 194 Z"/></clipPath></defs><g fill="#fff" stroke="#fff" shape-rendering="geometricPrecision" text-rendering="geometricPrecision" transform="translate(-226,-194)"><rect width="1184" height="711" x="226" y="194" stroke="none" clip-path="url(#clipPath2)"/></g><g fill="#C9DEF1" stroke="#C9DEF1" shape-rendering="geometricPrecision" text-rendering="geometricPrecision" transform="matrix(1,0,0,1,-226,-194)"><rect width="356" height="30" x="640" y="272" stroke="none" clip-path="url(#clipPath2)"/></g><g stroke-linecap="butt" stroke-miterlimit="1.45" shape-rendering="geometricPrecision" text-rendering="geometricPrecision" transform="matrix(1,0,0,1,-226,-194)"><rect width="356" height="30" x="640" y="272" fill="none" clip-path="url(#clipPath2)"/><text x="697.809" y="293.047" stroke="none" clip-path="url(#clipPath2)" font-family="sans-serif" font-size="16" xml:space="preserve">SwitchInterface/YangParseTree</text></g><g fill="#C9DEF1" stroke="#C9DEF1" shape-rendering="geometricPrecision" text-rendering="geometricPrecision" transform="matrix(1,0,0,1,-226,-194)"><rect width="356" height="30" x="640" y="357" stroke="none" clip-path="url(#clipPath2)"/></g><g stroke-linecap="butt" stroke-miterlimit="1.45" shape-rendering="geometricPrecision" text-rendering="geometricPrecision" transform="matrix(1,0,0,1,-226,-194)"><rect width="356" height="30" x="640" y="357" fill="none" clip-path="url(#clipPath2)"/><text x="761.652" y="378.047" stroke="none" clip-path="url(#clipPath2)" font-family="sans-serif" font-size="16" xml:space="preserve">GnmiPublisher</text></g><g fill="#C9DEF1" stroke="#C9DEF1" shape-rendering="geometricPrecision" text-rendering="geometricPrecision" transform="matrix(1,0,0,1,-226,-194)"><rect width="356" height="30" x="640" y="462" stroke="none" clip-path="url(#clipPath2)"/></g><g stroke-linecap="butt" stroke-miterlimit="1.45" shape-rendering="geometricPrecision" text-rendering="geometricPrecision" transform="matrix(1,0,0,1,-226,-194)"><rect width="356" height="30" x="640" y="462" fill="none" clip-path="url(#clipPath2)"/><text x="730.613" y="483.047" stroke="none" clip-path="url(#clipPath2)" font-family="sans-serif" font-size="16" xml:space="preserve">FooGnmiEvent.Process</text></g><g fill="#C9DEF1" stroke="#C9DEF1" shape-rendering="geometricPrecision" text-rendering="geometricPrecision" transform="matrix(1,0,0,1,-226,-194)"><rect width="356" height="30" x="640" y="567" stroke="none" clip-path="url(#clipPath2)"/></g><g stroke-linecap="butt" stroke-miterlimit="1.45" shape-rendering="geometricPrecision" text-rendering="geometricPrecision" transform="matrix(1,0,0,1,-226,-194)"><rect width="356" height="30" x="640" y="567" fill="none" clip-path="url(#clipPath2)"/><text x="663.977" y="588.047" stroke="none" clip-path="url(#clipPath2)" font-family="sans-serif" font-size="16" xml:space="preserve">EventHandlerList&lt;FooGnmiEventEvent&gt;</text></g><g fill="#C9DEF1" stroke="#C9DEF1" shape-rendering="geometricPrecision" text-rendering="geometricPrecision" transform="matrix(1,0,0,1,-226,-194)"><rect width="356" height="30" x="629" y="787" stroke="none" clip-path="url(#clipPath2)"/></g><g stroke-linecap="butt" stroke-miterlimit="1.45" shape-rendering="geometricPrecision" text-rendering="geometricPrecision" transform="matrix(1,0,0,1,-226,-194)"><rect width="356" height="30" x="629" y="787" fill="none" clip-path="url(#clipPath2)"/><text x="755.769" y="808.047" stroke="none" clip-path="url(#clipPath2)" font-family="sans-serif" font-size="16" xml:space="preserve">EventHandler</text></g><g fill="#C9DEF1" stroke="#C9DEF1" shape-rendering="geometricPrecision" text-rendering="geometricPrecision" transform="matrix(1,0,0,1,-226,-194)"><rect width="356" height="30" x="629" y="655" stroke="none" clip-path="url(#clipPath2)"/></g><g stroke-linecap="butt" stroke-miterlimit="1.45" shape-rendering="geometricPrecision" text-rendering="geometricPrecision" transform="matrix(1,0,0,1,-226,-194)"><rect width="356" height="30" x="629" y="655" fill="none" clip-path="url(#clipPath2)"/><text x="728.934" y="676.047" stroke="none" clip-path="url(#clipPath2)" font-family="sans-serif" font-size="16" xml:space="preserve">EventHandlerRecord</text></g><g fill="#C9DEF1" stroke="#C9DEF1" shape-rendering="geometricPrecision" text-rendering="geometricPrecision" transform="matrix(1,0,0,1,-226,-194)"><rect width="356" height="30" x="640" y="796" stroke="none" clip-path="url(#clipPath2)"/></g><g stroke-linecap="butt" stroke-miterlimit="1.45" shape-rendering="geometricPrecision" text-rendering="geometricPrecision" transform="matrix(1,0,0,1,-226,-194)"><rect width="356" height="30" x="640" y="796" fill="none" clip-path="url(#clipPath2)"/><text x="766.769" y="817.047" stroke="none" clip-path="url(#clipPath2)" font-family="sans-serif" font-size="16" xml:space="preserve">EventHandler</text></g><g fill="#C9DEF1" stroke="#C9DEF1" shape-rendering="geometricPrecision" text-rendering="geometricPrecision" transform="matrix(1,0,0,1,-226,-194)"><rect width="356" height="30" x="640" y="664" stroke="none" clip-path="url(#clipPath2)"/></g><g stroke-linecap="butt" stroke-miterlimit="1.45" shape-rendering="geometricPrecision" text-rendering="geometricPrecision" transform="matrix(1,0,0,1,-226,-194)"><rect width="356" height="30" x="640" y="664" fill="none" clip-path="url(#clipPath2)"/><text x="739.934" y="685.047" stroke="none" clip-path="url(#clipPath2)" font-family="sans-serif" font-size="16" xml:space="preserve">EventHandlerRecord</text></g><g fill="#C9DEF1" stroke="#C9DEF1" shape-rendering="geometricPrecision" text-rendering="geometricPrecision" transform="matrix(1,0,0,1,-226,-194)"><rect width="356" height="30" x="649" y="804" stroke="none" clip-path="url(#clipPath2)"/></g><g stroke-linecap="butt" stroke-miterlimit="1.45" shape-rendering="geometricPrecision" text-rendering="geometricPrecision" transform="matrix(1,0,0,1,-226,-194)"><rect width="356" height="30" x="649" y="804" fill="none" clip-path="url(#clipPath2)"/><text x="775.769" y="825.047" stroke="none" clip-path="url(#clipPath2)" font-family="sans-serif" font-size="16" xml:space="preserve">EventHandler</text></g><g fill="#C9DEF1" stroke="#C9DEF1" shape-rendering="geometricPrecision" text-rendering="geometricPrecision" transform="matrix(1,0,0,1,-226,-194)"><rect width="356" height="30" x="649" y="672" stroke="none" clip-path="url(#clipPath2)"/></g><g stroke-linecap="butt" stroke-miterlimit="1.45" shape-rendering="geometricPrecision" text-rendering="geometricPrecision" transform="matrix(1,0,0,1,-226,-194)"><rect width="356" height="30" x="649" y="672" fill="none" clip-path="url(#clipPath2)"/><text x="748.934" y="693.047" stroke="none" clip-path="url(#clipPath2)" font-family="sans-serif" font-size="16" xml:space="preserve">EventHandlerRecord</text></g><g fill="#C9DEF1" stroke="#C9DEF1" shape-rendering="geometricPrecision" text-rendering="geometricPrecision" transform="matrix(1,0,0,1,-226,-194)"><rect width="356" height="30" x="660" y="817" stroke="none" clip-path="url(#clipPath2)"/></g><g stroke-linecap="butt" stroke-miterlimit="1.45" shape-rendering="geometricPrecision" text-rendering="geometricPrecision" transform="matrix(1,0,0,1,-226,-194)"><rect width="356" height="30" x="660" y="817" fill="none" clip-path="url(#clipPath2)"/><text x="786.769" y="838.047" stroke="none" clip-path="url(#clipPath2)" font-family="sans-serif" font-size="16" xml:space="preserve">EventHandler</text></g><g fill="#C9DEF1" stroke="#C9DEF1" shape-rendering="geometricPrecision" text-rendering="geometricPrecision" transform="matrix(1,0,0,1,-226,-194)"><rect width="356" height="30" x="660" y="685" stroke="none" clip-path="url(#clipPath2)"/></g><g stroke-linecap="butt" stroke-miterlimit="1.45" shape-rendering="geometricPrecision" text-rendering="geometricPrecision" transform="matrix(1,0,0,1,-226,-194)"><rect width="356" height="30" x="660" y="685" fill="none" clip-path="url(#clipPath2)"/><text x="759.934" y="706.047" stroke="none" clip-path="url(#clipPath2)" font-family="sans-serif" font-size="16" xml:space="preserve">EventHandlerRecord</text><text x="835.414" y="334.035" stroke="none" clip-path="url(#clipPath2)" font-family="sans-serif" xml:space="preserve">Send FooGnmiEvent via event writer</text><text x="831.21" y="425.535" stroke="none" clip-path="url(#clipPath2)" font-family="sans-serif" xml:space="preserve">Call &quot;Process&quot; method from the event</text><text x="833.976" y="525.035" stroke="none" clip-path="url(#clipPath2)" font-family="sans-serif" xml:space="preserve">Find handler list and send itself to it</text><text x="843.547" y="630.535" stroke="none" clip-path="url(#clipPath2)" font-family="sans-serif" xml:space="preserve">Send event to all handler records</text><text x="849.253" y="757.535" stroke="none" clip-path="url(#clipPath2)" font-family="sans-serif" xml:space="preserve">Apply event to handler with subscriber stream from the record</text><path fill="none" d="M818 302 L818 349" clip-path="url(#clipPath2)"/><path stroke="none" d="M818 357 L823 345 L818 348 L813 345 Z" clip-path="url(#clipPath2)"/><path fill="none" d="M818 387 L818 454" clip-path="url(#clipPath2)"/><path stroke="none" d="M818 462 L823 450 L818 453 L813 450 Z" clip-path="url(#clipPath2)"/><path fill="none" d="M818 492 L818 559" clip-path="url(#clipPath2)"/><path stroke="none" d="M818 567 L823 555 L818 558 L813 555 Z" clip-path="url(#clipPath2)"/><path fill="none" d="M816.125 597 L809.8672 647.0618" clip-path="url(#clipPath2)"/><path stroke="none" d="M808.875 655 L815.3248 643.7128 L809.9913 646.0695 L805.402 642.4725 Z" clip-path="url(#clipPath2)"/><path fill="none" d="M818 597 L818 656" clip-path="url(#clipPath2)"/><path stroke="none" d="M818 664 L823 652 L818 655 L813 652 Z" clip-path="url(#clipPath2)"/><path fill="none" d="M819.2857 597 L825.0311 664.0292" clip-path="url(#clipPath2)"/><path stroke="none" d="M825.7143 672 L829.6712 659.6168 L824.9457 663.0329 L819.7077 660.4709 Z" clip-path="url(#clipPath2)"/><path fill="none" d="M820.5424 597 L834.1208 677.1125" clip-path="url(#clipPath2)"/><path stroke="none" d="M835.4576 685 L838.3821 672.3332 L833.9537 676.1265 L828.5226 674.0043 Z" clip-path="url(#clipPath2)"/><path fill="none" d="M838 715 L838 809" clip-path="url(#clipPath2)"/><path stroke="none" d="M838 817 L843 805 L838 808 L833 805 Z" clip-path="url(#clipPath2)"/><path fill="none" d="M807 715.0347 L807 779" clip-path="url(#clipPath2)"/><path stroke="none" d="M807 787 L812 775 L807 778 L802 775 Z" clip-path="url(#clipPath2)"/><path fill="none" d="M818 715.0078 L818 788" clip-path="url(#clipPath2)"/><path stroke="none" d="M818 796 L823 784 L818 787 L813 784 Z" clip-path="url(#clipPath2)"/><path fill="none" d="M827 715.0234 L827 796" clip-path="url(#clipPath2)"/><path stroke="none" d="M827 804 L832 792 L827 795 L822 792 Z" clip-path="url(#clipPath2)"/></g></g></svg>