<svg xmlns="http://www.w3.org/2000/svg" xmlns:xlink="http://www.w3.org/1999/xlink" width="996" height="379" fill="#000" fill-opacity="1" stroke="#000" stroke-dasharray="none" stroke-dashoffset="0" stroke-linecap="square" stroke-linejoin="miter" stroke-miterlimit="10" stroke-opacity="1" stroke-width="1" color-interpolation="auto" color-rendering="auto" font-family="'Dialog'" font-size="12" font-style="normal" font-weight="normal" image-rendering="auto" shape-rendering="auto" text-rendering="auto"><g><defs id="defs1"><clipPath id="clipPath1" clipPathUnits="userSpaceOnUse"><path d="M0 0 L996 0 L996 379 L0 379 L0 0 Z"/></clipPath><clipPath id="clipPath2" clipPathUnits="userSpaceOnUse"><path d="M441 184 L1437 184 L1437 563 L441 563 L441 184 Z"/></clipPath></defs><g fill="#fff" stroke="#fff" shape-rendering="geometricPrecision" text-rendering="geometricPrecision" transform="translate(-441,-184)"><rect width="996" height="379" x="441" y="184" stroke="none" clip-path="url(#clipPath2)"/></g><g fill="#D4E7CD" stroke="#D4E7CD" shape-rendering="geometricPrecision" text-rendering="geometricPrecision" transform="matrix(1,0,0,1,-441,-184)"><rect width="155" height="22" x="1201" y="487" stroke="none" clip-path="url(#clipPath2)"/></g><g stroke-linecap="butt" stroke-miterlimit="1.45" shape-rendering="geometricPrecision" text-rendering="geometricPrecision" transform="matrix(1,0,0,1,-441,-184)"><rect width="155" height="22" x="1201" y="487" fill="none" clip-path="url(#clipPath2)"/><text x="1209.383" y="502.535" stroke="none" clip-path="url(#clipPath2)" font-family="sans-serif" xml:space="preserve">Poll Handler From Node</text></g><g fill="#D4E7CD" stroke="#D4E7CD" shape-rendering="geometricPrecision" text-rendering="geometricPrecision" transform="matrix(1,0,0,1,-441,-184)"><rect width="155" height="22" x="1176" y="462" stroke="none" clip-path="url(#clipPath2)"/></g><g stroke-linecap="butt" stroke-miterlimit="1.45" shape-rendering="geometricPrecision" text-rendering="geometricPrecision" transform="matrix(1,0,0,1,-441,-184)"><rect width="155" height="22" x="1176" y="462" fill="none" clip-path="url(#clipPath2)"/><text x="1184.383" y="477.535" stroke="none" clip-path="url(#clipPath2)" font-family="sans-serif" xml:space="preserve">Poll Handler From Node</text></g><g fill="#C9DEF1" stroke="#C9DEF1" shape-rendering="geometricPrecision" text-rendering="geometricPrecision" transform="matrix(1,0,0,1,-441,-184)"><rect width="140" height="45" x="585" y="221" stroke="none" clip-path="url(#clipPath2)"/></g><g stroke-linecap="butt" stroke-miterlimit="1.45" shape-rendering="geometricPrecision" text-rendering="geometricPrecision" transform="matrix(1,0,0,1,-441,-184)"><rect width="140" height="45" x="585" y="221" fill="none" clip-path="url(#clipPath2)"/><text x="611.238" y="249.547" stroke="none" clip-path="url(#clipPath2)" font-family="sans-serif" font-size="16" xml:space="preserve">gNMI client</text></g><g fill="#C9DEF1" stroke="#C9DEF1" shape-rendering="geometricPrecision" text-rendering="geometricPrecision" transform="matrix(1,0,0,1,-441,-184)"><rect width="249" height="45" x="530.5" y="435" stroke="none" clip-path="url(#clipPath2)"/></g><g stroke-linecap="butt" stroke-miterlimit="1.45" shape-rendering="geometricPrecision" text-rendering="geometricPrecision" transform="matrix(1,0,0,1,-441,-184)"><rect width="249" height="45" x="530.5" y="435" fill="none" clip-path="url(#clipPath2)"/><text x="559.769" y="463.547" stroke="none" clip-path="url(#clipPath2)" font-family="sans-serif" font-size="16" xml:space="preserve">ConfigMonitoringService</text></g><g fill="#C9DEF1" stroke="#C9DEF1" shape-rendering="geometricPrecision" text-rendering="geometricPrecision" transform="matrix(1,0,0,1,-441,-184)"><rect width="420" height="75" x="938" y="420" stroke="none" clip-path="url(#clipPath2)"/></g><g stroke-linecap="butt" stroke-miterlimit="1.45" shape-rendering="geometricPrecision" text-rendering="geometricPrecision" transform="matrix(1,0,0,1,-441,-184)"><rect width="420" height="75" x="938" y="420" fill="none" clip-path="url(#clipPath2)"/><text x="1072.645" y="443.256" stroke="none" clip-path="url(#clipPath2)" font-family="sans-serif" font-size="16" xml:space="preserve">SubscriptionHandle</text></g><g fill="#D4E7CD" stroke="#D4E7CD" shape-rendering="geometricPrecision" text-rendering="geometricPrecision" transform="matrix(1,0,0,1,-441,-184)"><rect width="155" height="22" x="959" y="462" stroke="none" clip-path="url(#clipPath2)"/></g><g stroke-linecap="butt" stroke-miterlimit="1.45" shape-rendering="geometricPrecision" text-rendering="geometricPrecision" transform="matrix(1,0,0,1,-441,-184)"><rect width="155" height="22" x="959" y="462" fill="none" clip-path="url(#clipPath2)"/><text x="967.383" y="477.535" stroke="none" clip-path="url(#clipPath2)" font-family="sans-serif" xml:space="preserve">Poll Handler From Node</text></g><g fill="#C9DEF1" stroke="#C9DEF1" shape-rendering="geometricPrecision" text-rendering="geometricPrecision" transform="matrix(1,0,0,1,-441,-184)"><rect width="420" height="75" x="963" y="445" stroke="none" clip-path="url(#clipPath2)"/></g><g stroke-linecap="butt" stroke-miterlimit="1.45" shape-rendering="geometricPrecision" text-rendering="geometricPrecision" transform="matrix(1,0,0,1,-441,-184)"><rect width="420" height="75" x="963" y="445" fill="none" clip-path="url(#clipPath2)"/><text x="1097.645" y="468.256" stroke="none" clip-path="url(#clipPath2)" font-family="sans-serif" font-size="16" xml:space="preserve">SubscriptionHandle</text></g><g fill="#D4E7CD" stroke="#D4E7CD" shape-rendering="geometricPrecision" text-rendering="geometricPrecision" transform="matrix(1,0,0,1,-441,-184)"><rect width="155" height="22" x="984" y="487" stroke="none" clip-path="url(#clipPath2)"/></g><g stroke-linecap="butt" stroke-miterlimit="1.45" shape-rendering="geometricPrecision" text-rendering="geometricPrecision" transform="matrix(1,0,0,1,-441,-184)"><rect width="155" height="22" x="984" y="487" fill="none" clip-path="url(#clipPath2)"/><text x="992.383" y="502.535" stroke="none" clip-path="url(#clipPath2)" font-family="sans-serif" xml:space="preserve">Poll Handler From Node</text></g><g fill="#C9DEF1" stroke="#C9DEF1" shape-rendering="geometricPrecision" text-rendering="geometricPrecision" transform="matrix(1,0,0,1,-441,-184)"><rect width="420" height="75" x="988" y="470" stroke="none" clip-path="url(#clipPath2)"/></g><g stroke-linecap="butt" stroke-miterlimit="1.45" shape-rendering="geometricPrecision" text-rendering="geometricPrecision" transform="matrix(1,0,0,1,-441,-184)"><rect width="420" height="75" x="988" y="470" fill="none" clip-path="url(#clipPath2)"/><text x="1122.645" y="493.256" stroke="none" clip-path="url(#clipPath2)" font-family="sans-serif" font-size="16" xml:space="preserve">SubscriptionHandle</text></g><g fill="#D4E7CD" stroke="#D4E7CD" shape-rendering="geometricPrecision" text-rendering="geometricPrecision" transform="matrix(1,0,0,1,-441,-184)"><rect width="155" height="22" x="1009" y="512" stroke="none" clip-path="url(#clipPath2)"/></g><g stroke-linecap="butt" stroke-miterlimit="1.45" shape-rendering="geometricPrecision" text-rendering="geometricPrecision" transform="matrix(1,0,0,1,-441,-184)"><rect width="155" height="22" x="1009" y="512" fill="none" clip-path="url(#clipPath2)"/><text x="1017.383" y="527.535" stroke="none" clip-path="url(#clipPath2)" font-family="sans-serif" xml:space="preserve">Poll Handler From Node</text></g><g fill="#D4E7CD" stroke="#D4E7CD" shape-rendering="geometricPrecision" text-rendering="geometricPrecision" transform="matrix(1,0,0,1,-441,-184)"><rect width="155" height="22" x="1226" y="512" stroke="none" clip-path="url(#clipPath2)"/></g><g stroke-linecap="butt" stroke-miterlimit="1.45" shape-rendering="geometricPrecision" text-rendering="geometricPrecision" transform="matrix(1,0,0,1,-441,-184)"><rect width="155" height="22" x="1226" y="512" fill="none" clip-path="url(#clipPath2)"/><text x="1253.414" y="527.535" stroke="none" clip-path="url(#clipPath2)" font-family="sans-serif" xml:space="preserve">Subscribe stream</text><text x="1018.236" y="406.047" stroke="none" clip-path="url(#clipPath2)" font-family="sans-serif" font-size="16" xml:space="preserve">Subscription handles (one per path)</text><text x="665.937" y="344.535" stroke="none" clip-path="url(#clipPath2)" font-family="sans-serif" xml:space="preserve">1 - Subscribe poll</text><text x="800.575" y="448.535" stroke="none" clip-path="url(#clipPath2)" font-family="sans-serif" xml:space="preserve">2 - Create handle</text><text x="480.625" y="344.535" fill="red" stroke="none" clip-path="url(#clipPath2)" font-family="sans-serif" xml:space="preserve">3 - Poll request</text><text x="696.504" y="537.535" fill="red" stroke="none" clip-path="url(#clipPath2)" font-family="sans-serif" xml:space="preserve">4 - Pass PollEvent to handles</text><text x="1068.089" y="508.035" fill="red" stroke="none" clip-path="url(#clipPath2)" font-family="sans-serif" xml:space="preserve">5 - Pass value from node handler to stream</text><text x="909.314" y="219.535" fill="red" stroke="none" clip-path="url(#clipPath2)" font-family="sans-serif" xml:space="preserve">6 - Send gNMI notification to client</text><path fill="none" d="M655 266 L655 427" clip-path="url(#clipPath2)"/><path stroke="none" d="M655 435 L660 423 L655 426 L650 423 Z" clip-path="url(#clipPath2)"/><path fill="none" d="M655 266 L655 427" clip-path="url(#clipPath2)"/><path stroke="none" d="M655 435 L660 423 L655 426 L650 423 Z" clip-path="url(#clipPath2)"/><path fill="none" d="M655 266 L655 427" clip-path="url(#clipPath2)"/><path stroke="none" d="M655 435 L660 423 L655 426 L650 423 Z" clip-path="url(#clipPath2)"/><path fill="none" stroke="red" d="M584.9738 243.5 L477.5954 243.5 L477.5954 457.5 L522.4742 457.5" clip-path="url(#clipPath2)"/><path fill="red" stroke="none" d="M530.4742 457.5 L518.4742 452.5 L521.4742 457.5 L518.4742 462.5 Z" clip-path="url(#clipPath2)"/><path fill="none" d="M779.5 457.5 L929.9613 457.5" clip-path="url(#clipPath2)"/><path stroke="none" d="M937.9613 457.5 L925.9613 452.5 L928.9613 457.5 L925.9613 462.5 Z" clip-path="url(#clipPath2)"/><path fill="none" stroke="red" d="M655 480 L655 491.9359 L818.5954 491.9359 L818.5954 473 L950.9657 473" clip-path="url(#clipPath2)"/><path fill="red" stroke="none" d="M958.9657 473 L946.9657 468 L949.9657 473 L946.9657 478 Z" clip-path="url(#clipPath2)"/><path fill="none" d="M779.5 457.5 L955.0284 481.4139" clip-path="url(#clipPath2)"/><path stroke="none" d="M962.9552 482.4939 L951.74 475.9197 L954.0376 481.2789 L950.3901 485.8282 Z" clip-path="url(#clipPath2)"/><path fill="none" stroke="red" d="M1370.783 444.9905 L1370.783 256.9264 L733.0179 256.9264" clip-path="url(#clipPath2)"/><path fill="red" stroke="none" d="M725.0179 256.9264 L737.0179 261.9264 L734.0179 256.9264 L737.0179 251.9264 Z" clip-path="url(#clipPath2)"/><path fill="none" stroke="red" d="M655 480 L655 498 L975.9598 498" clip-path="url(#clipPath2)"/><path fill="red" stroke="none" d="M983.9598 498 L971.9598 493 L974.9598 498 L971.9598 503 Z" clip-path="url(#clipPath2)"/><path fill="none" d="M779.5 457.5 L980.1951 505.6283" clip-path="url(#clipPath2)"/><path stroke="none" d="M987.9745 507.4939 L977.4714 499.8334 L979.2227 505.3951 L975.1394 509.5577 Z" clip-path="url(#clipPath2)"/><path fill="none" stroke="red" d="M1395.2827 469.9768 L1395.2827 243.5 L733 243.5" clip-path="url(#clipPath2)"/><path fill="red" stroke="none" d="M725 243.5 L737 248.5 L734 243.5 L737 238.5 Z" clip-path="url(#clipPath2)"/><path fill="none" stroke="red" d="M655 480 L655 523 L1001 523" clip-path="url(#clipPath2)"/><path fill="red" stroke="none" d="M1009 523 L997 518 L1000 523 L997 528 Z" clip-path="url(#clipPath2)"/><path fill="none" stroke="red" d="M1164 523 L1217.9697 523" clip-path="url(#clipPath2)"/><path fill="red" stroke="none" d="M1225.9697 523 L1213.9697 518 L1216.9697 523 L1213.9697 528 Z" clip-path="url(#clipPath2)"/><path fill="none" stroke="red" d="M1381 523 L1422 523 L1422 230.9989 L733.0035 230.9989" clip-path="url(#clipPath2)"/><path fill="red" stroke="none" d="M725.0035 230.9989 L737.0035 235.9989 L734.0035 230.9989 L737.0035 225.9989 Z" clip-path="url(#clipPath2)"/></g></g></svg>