<svg xmlns="http://www.w3.org/2000/svg" xmlns:xlink="http://www.w3.org/1999/xlink" width="1436" height="649" fill="#000" fill-opacity="1" stroke="#000" stroke-dasharray="none" stroke-dashoffset="0" stroke-linecap="square" stroke-linejoin="miter" stroke-miterlimit="10" stroke-opacity="1" stroke-width="1" color-interpolation="auto" color-rendering="auto" font-family="'Dialog'" font-size="12" font-style="normal" font-weight="normal" image-rendering="auto" shape-rendering="auto" text-rendering="auto"><g><defs id="defs1"><clipPath id="clipPath1" clipPathUnits="userSpaceOnUse"><path d="M0 0 L1436 0 L1436 649 L0 649 L0 0 Z"/></clipPath><clipPath id="clipPath2" clipPathUnits="userSpaceOnUse"><path d="M201 256 L1637 256 L1637 905 L201 905 L201 256 Z"/></clipPath></defs><g fill="#fff" stroke="#fff" shape-rendering="geometricPrecision" text-rendering="geometricPrecision" transform="translate(-201,-256)"><rect width="1436" height="649" x="201" y="256" stroke="none" clip-path="url(#clipPath2)"/></g><g fill="#C9DEF1" stroke="#C9DEF1" shape-rendering="geometricPrecision" text-rendering="geometricPrecision" transform="matrix(1,0,0,1,-201,-256)"><circle cx="901" cy="340" r="42" stroke="none" clip-path="url(#clipPath2)"/></g><g stroke-linecap="butt" stroke-miterlimit="1.45" shape-rendering="geometricPrecision" text-rendering="geometricPrecision" transform="matrix(1,0,0,1,-201,-256)"><circle cx="901" cy="340" r="42" fill="none" clip-path="url(#clipPath2)"/><text x="877.144" y="346.047" stroke="none" clip-path="url(#clipPath2)" font-family="sans-serif" font-size="16" xml:space="preserve">&quot;Root&quot;</text></g><g fill="#C9DEF1" stroke="#C9DEF1" shape-rendering="geometricPrecision" text-rendering="geometricPrecision" transform="matrix(1,0,0,1,-201,-256)"><circle cx="901" cy="447" r="42" stroke="none" clip-path="url(#clipPath2)"/></g><g stroke-linecap="butt" stroke-miterlimit="1.45" shape-rendering="geometricPrecision" text-rendering="geometricPrecision" transform="matrix(1,0,0,1,-201,-256)"><circle cx="901" cy="447" r="42" fill="none" clip-path="url(#clipPath2)"/><text x="866.281" y="453.047" stroke="none" clip-path="url(#clipPath2)" font-family="sans-serif" font-size="16" xml:space="preserve">intefaces</text></g><g fill="#C9DEF1" stroke="#C9DEF1" shape-rendering="geometricPrecision" text-rendering="geometricPrecision" transform="matrix(1,0,0,1,-201,-256)"><circle cx="901" cy="554" r="42" stroke="none" clip-path="url(#clipPath2)"/></g><g stroke-linecap="butt" stroke-miterlimit="1.45" shape-rendering="geometricPrecision" text-rendering="geometricPrecision" transform="matrix(1,0,0,1,-201,-256)"><circle cx="901" cy="554" r="42" fill="none" clip-path="url(#clipPath2)"/><text x="870.359" y="560.047" stroke="none" clip-path="url(#clipPath2)" font-family="sans-serif" font-size="16" xml:space="preserve">inteface</text></g><g fill="#C9DEF1" stroke="#C9DEF1" shape-rendering="geometricPrecision" text-rendering="geometricPrecision" transform="matrix(1,0,0,1,-201,-256)"><circle cx="817" cy="636.05" r="42" stroke="none" clip-path="url(#clipPath2)"/></g><g stroke-linecap="butt" stroke-miterlimit="1.45" shape-rendering="geometricPrecision" text-rendering="geometricPrecision" transform="matrix(1,0,0,1,-201,-256)"><circle cx="817" cy="636.05" r="42" fill="none" clip-path="url(#clipPath2)"/><text x="793.434" y="642.097" stroke="none" clip-path="url(#clipPath2)" font-family="sans-serif" font-size="16" xml:space="preserve">1/1/1</text></g><g fill="#C9DEF1" stroke="#C9DEF1" shape-rendering="geometricPrecision" text-rendering="geometricPrecision" transform="matrix(1,0,0,1,-201,-256)"><circle cx="985" cy="638" r="42" stroke="none" clip-path="url(#clipPath2)"/></g><g stroke-linecap="butt" stroke-miterlimit="1.45" shape-rendering="geometricPrecision" text-rendering="geometricPrecision" transform="matrix(1,0,0,1,-201,-256)"><circle cx="985" cy="638" r="42" fill="none" clip-path="url(#clipPath2)"/><text x="961.434" y="644.047" stroke="none" clip-path="url(#clipPath2)" font-family="sans-serif" font-size="16" xml:space="preserve">1/2/1</text></g><g fill="#C9DEF1" stroke="#C9DEF1" shape-rendering="geometricPrecision" text-rendering="geometricPrecision" transform="matrix(1,0,0,1,-201,-256)"><circle cx="1069" cy="722" r="42" stroke="none" clip-path="url(#clipPath2)"/></g><g stroke-linecap="butt" stroke-miterlimit="1.45" shape-rendering="geometricPrecision" text-rendering="geometricPrecision" transform="matrix(1,0,0,1,-201,-256)"><circle cx="1069" cy="722" r="42" fill="none" clip-path="url(#clipPath2)"/><text x="1050.063" y="728.047" stroke="none" clip-path="url(#clipPath2)" font-family="sans-serif" font-size="16" xml:space="preserve">state</text></g><g fill="#C9DEF1" stroke="#C9DEF1" shape-rendering="geometricPrecision" text-rendering="geometricPrecision" transform="matrix(1,0,0,1,-201,-256)"><circle cx="733" cy="720.05" r="42" stroke="none" clip-path="url(#clipPath2)"/></g><g stroke-linecap="butt" stroke-miterlimit="1.45" shape-rendering="geometricPrecision" text-rendering="geometricPrecision" transform="matrix(1,0,0,1,-201,-256)"><circle cx="733" cy="720.05" r="42" fill="none" clip-path="url(#clipPath2)"/><text x="714.063" y="726.097" stroke="none" clip-path="url(#clipPath2)" font-family="sans-serif" font-size="16" xml:space="preserve">state</text></g><g fill="#C9DEF1" stroke="#C9DEF1" shape-rendering="geometricPrecision" text-rendering="geometricPrecision" transform="matrix(1,0,0,1,-201,-256)"><circle cx="649" cy="804.05" r="42" stroke="none" clip-path="url(#clipPath2)"/></g><g stroke-linecap="butt" stroke-miterlimit="1.45" shape-rendering="geometricPrecision" text-rendering="geometricPrecision" transform="matrix(1,0,0,1,-201,-256)"><circle cx="649" cy="804.05" r="42" fill="none" clip-path="url(#clipPath2)"/><text x="627.691" y="810.097" stroke="none" clip-path="url(#clipPath2)" font-family="sans-serif" font-size="16" xml:space="preserve">name</text></g><g fill="#C9DEF1" stroke="#C9DEF1" shape-rendering="geometricPrecision" text-rendering="geometricPrecision" transform="matrix(1,0,0,1,-201,-256)"><circle cx="1153" cy="806" r="42" stroke="none" clip-path="url(#clipPath2)"/></g><g stroke-linecap="butt" stroke-miterlimit="1.45" shape-rendering="geometricPrecision" text-rendering="geometricPrecision" transform="matrix(1,0,0,1,-201,-256)"><circle cx="1153" cy="806" r="42" fill="none" clip-path="url(#clipPath2)"/><text x="1131.691" y="812.047" stroke="none" clip-path="url(#clipPath2)" font-family="sans-serif" font-size="16" xml:space="preserve">name</text><path fill="none" d="M901 382 L901 397" clip-path="url(#clipPath2)"/><path stroke="none" d="M901 405 L906 393 L901 396 L896 393 Z" clip-path="url(#clipPath2)"/><path fill="none" d="M901 489 L901 504" clip-path="url(#clipPath2)"/><path stroke="none" d="M901 512 L906 500 L901 503 L896 500 Z" clip-path="url(#clipPath2)"/><path fill="none" d="M870.9549 583.3478 L852.768 601.1126" clip-path="url(#clipPath2)"/><path stroke="none" d="M847.0451 606.7026 L859.1232 601.8944 L853.4834 600.4139 L852.1357 594.7408 Z" clip-path="url(#clipPath2)"/><path fill="none" d="M930.6985 583.6985 L949.6447 602.6447" clip-path="url(#clipPath2)"/><path stroke="none" d="M955.3015 608.3015 L950.3517 596.2807 L948.9376 601.9376 L943.2807 603.3517 Z" clip-path="url(#clipPath2)"/><path fill="none" d="M1014.6985 667.6985 L1033.6447 686.6447" clip-path="url(#clipPath2)"/><path stroke="none" d="M1039.3015 692.3015 L1034.3518 680.2807 L1032.9375 685.9376 L1027.2806 687.3517 Z" clip-path="url(#clipPath2)"/><path fill="none" d="M787.3015 665.7489 L768.3553 684.6951" clip-path="url(#clipPath2)"/><path stroke="none" d="M762.6985 690.3519 L774.7193 685.4022 L769.0624 683.988 L767.6483 678.3311 Z" clip-path="url(#clipPath2)"/><path fill="none" d="M703.3015 749.7489 L684.3553 768.6951" clip-path="url(#clipPath2)"/><path stroke="none" d="M678.6985 774.3519 L690.7193 769.4022 L685.0624 767.988 L683.6483 762.3311 Z" clip-path="url(#clipPath2)"/><path fill="none" d="M1098.6985 751.6985 L1117.6447 770.6447" clip-path="url(#clipPath2)"/><path stroke="none" d="M1123.3015 776.3015 L1118.3518 764.2807 L1116.9375 769.9376 L1111.2806 771.3517 Z" clip-path="url(#clipPath2)"/></g></g></svg>