<svg xmlns="http://www.w3.org/2000/svg" xmlns:xlink="http://www.w3.org/1999/xlink" width="500" height="320" fill="#000" fill-opacity="1" stroke="#000" stroke-dasharray="none" stroke-dashoffset="0" stroke-linecap="square" stroke-linejoin="miter" stroke-miterlimit="10" stroke-opacity="1" stroke-width="1" color-interpolation="auto" color-rendering="auto" font-family="'Dialog'" font-size="12" font-style="normal" font-weight="normal" image-rendering="auto" shape-rendering="auto" text-rendering="auto"><g><defs id="defs1"><clipPath id="clipPath1" clipPathUnits="userSpaceOnUse"><path d="M0 0 L500 0 L500 320 L0 320 L0 0 Z"/></clipPath><clipPath id="clipPath2" clipPathUnits="userSpaceOnUse"><path d="M68 338 L1042 338 L1042 961.36 L68 961.36 L68 338 Z"/></clipPath></defs><g fill="#fff" stroke="#fff" shape-rendering="geometricPrecision" text-rendering="geometricPrecision" transform="scale(0.5133,0.5133) translate(-68,-338)"><rect width="974" height="624" x="68" y="338" stroke="none" clip-path="url(#clipPath2)"/></g><g fill="#D3E2F2" stroke="#D3E2F2" shape-rendering="geometricPrecision" text-rendering="geometricPrecision" transform="matrix(0.5133,0,0,0.5133,-34.9076,-173.5113)"><rect width="523" height="496" x="335" y="353" stroke="none" clip-path="url(#clipPath2)" rx="4" ry="4"/></g><g stroke-linecap="butt" stroke-miterlimit="1.45" shape-rendering="geometricPrecision" text-rendering="geometricPrecision" transform="matrix(0.5133,0,0,0.5133,-34.9076,-173.5113)"><rect width="523" height="496" x="335" y="353" fill="none" clip-path="url(#clipPath2)" rx="4" ry="4"/></g><g fill="#BDD6AC" stroke="#BDD6AC" shape-rendering="geometricPrecision" text-rendering="geometricPrecision" transform="matrix(0.5133,0,0,0.5133,-34.9076,-173.5113)"><rect width="126" height="32" x="560.5" y="766" stroke="none" clip-path="url(#clipPath2)" rx="4" ry="4"/></g><g stroke-linecap="butt" stroke-miterlimit="1.45" shape-rendering="geometricPrecision" text-rendering="geometricPrecision" transform="matrix(0.5133,0,0,0.5133,-34.9076,-173.5113)"><rect width="126" height="32" x="560.5" y="766" fill="none" clip-path="url(#clipPath2)" rx="4" ry="4"/><text x="586.51" y="786.535" stroke="none" clip-path="url(#clipPath2)" font-family="sans-serif" xml:space="preserve">TAI Interface</text></g><g fill="#AAC2F0" stroke="#AAC2F0" shape-rendering="geometricPrecision" text-rendering="geometricPrecision" transform="matrix(0.5133,0,0,0.5133,-34.9076,-173.5113)"><rect width="77" height="32" x="585" y="370" stroke="none" clip-path="url(#clipPath2)" rx="4" ry="4"/></g><g stroke-linecap="butt" stroke-miterlimit="1.45" shape-rendering="geometricPrecision" text-rendering="geometricPrecision" transform="matrix(0.5133,0,0,0.5133,-34.9076,-173.5113)"><rect width="77" height="32" x="585" y="370" fill="none" clip-path="url(#clipPath2)" rx="4" ry="4"/><text x="608.43" y="390.535" stroke="none" clip-path="url(#clipPath2)" font-family="sans-serif" xml:space="preserve">gNMI</text></g><g fill="#AAC2F0" stroke="#AAC2F0" shape-rendering="geometricPrecision" text-rendering="geometricPrecision" transform="matrix(0.5133,0,0,0.5133,-34.9076,-173.5113)"><rect width="195" height="32" x="526" y="443" stroke="none" clip-path="url(#clipPath2)" rx="4" ry="4"/></g><g stroke-linecap="butt" stroke-miterlimit="1.45" shape-rendering="geometricPrecision" text-rendering="geometricPrecision" transform="matrix(0.5133,0,0,0.5133,-34.9076,-173.5113)"><rect width="195" height="32" x="526" y="443" fill="none" clip-path="url(#clipPath2)" rx="4" ry="4"/><text x="556.747" y="463.535" stroke="none" clip-path="url(#clipPath2)" font-family="sans-serif" xml:space="preserve">Switch Broker Interface</text></g><g fill="#FBE5A3" stroke="#FBE5A3" shape-rendering="geometricPrecision" text-rendering="geometricPrecision" transform="matrix(0.5133,0,0,0.5133,-34.9076,-173.5113)"><rect width="87" height="32" x="580" y="515" stroke="none" clip-path="url(#clipPath2)" rx="4" ry="4"/></g><g stroke-linecap="butt" stroke-miterlimit="1.45" shape-rendering="geometricPrecision" text-rendering="geometricPrecision" transform="matrix(0.5133,0,0,0.5133,-34.9076,-173.5113)"><rect width="87" height="32" x="580" y="515" fill="none" clip-path="url(#clipPath2)" rx="4" ry="4"/><text x="608.436" y="535.535" stroke="none" clip-path="url(#clipPath2)" font-family="sans-serif" xml:space="preserve">PHAL</text></g><g fill="#FBE5A3" stroke="#FBE5A3" shape-rendering="geometricPrecision" text-rendering="geometricPrecision" transform="matrix(0.5133,0,0,0.5133,-34.9076,-173.5113)"><rect width="87" height="32" x="732.5" y="577" stroke="none" clip-path="url(#clipPath2)" rx="4" ry="4"/></g><g stroke-linecap="butt" stroke-miterlimit="1.45" shape-rendering="geometricPrecision" text-rendering="geometricPrecision" transform="matrix(0.5133,0,0,0.5133,-34.9076,-173.5113)"><rect width="87" height="32" x="732.5" y="577" fill="none" clip-path="url(#clipPath2)" rx="4" ry="4"/><text x="749.375" y="597.535" stroke="none" clip-path="url(#clipPath2)" font-family="sans-serif" xml:space="preserve">TAI PHAL</text></g><g fill="#FBE5A3" stroke="#FBE5A3" shape-rendering="geometricPrecision" text-rendering="geometricPrecision" transform="matrix(0.5133,0,0,0.5133,-34.9076,-173.5113)"><rect width="178" height="32" x="534.5" y="577" stroke="none" clip-path="url(#clipPath2)" rx="4" ry="4"/></g><g stroke-linecap="butt" stroke-miterlimit="1.45" shape-rendering="geometricPrecision" text-rendering="geometricPrecision" transform="matrix(0.5133,0,0,0.5133,-34.9076,-173.5113)"><rect width="178" height="32" x="534.5" y="577" fill="none" clip-path="url(#clipPath2)" rx="4" ry="4"/><text x="554.292" y="597.535" stroke="none" clip-path="url(#clipPath2)" font-family="sans-serif" xml:space="preserve">TAI Switch Configurator</text></g><g fill="#FBE5A3" stroke="#FBE5A3" shape-rendering="geometricPrecision" text-rendering="geometricPrecision" transform="matrix(0.5133,0,0,0.5133,-34.9076,-173.5113)"><rect width="126" height="32" x="388.5" y="644" stroke="none" clip-path="url(#clipPath2)" rx="4" ry="4"/></g><g stroke-linecap="butt" stroke-miterlimit="1.45" shape-rendering="geometricPrecision" text-rendering="geometricPrecision" transform="matrix(0.5133,0,0,0.5133,-34.9076,-173.5113)"><rect width="126" height="32" x="388.5" y="644" fill="none" clip-path="url(#clipPath2)" rx="4" ry="4"/><text x="407.681" y="664.535" stroke="none" clip-path="url(#clipPath2)" font-family="sans-serif" xml:space="preserve">PHAL Database</text></g><g fill="#FBE5A3" stroke="#FBE5A3" shape-rendering="geometricPrecision" text-rendering="geometricPrecision" transform="matrix(0.5133,0,0,0.5133,-34.9076,-173.5113)"><rect width="126" height="32" x="388.5" y="577" stroke="none" clip-path="url(#clipPath2)" rx="4" ry="4"/></g><g stroke-linecap="butt" stroke-miterlimit="1.45" shape-rendering="geometricPrecision" text-rendering="geometricPrecision" transform="matrix(0.5133,0,0,0.5133,-34.9076,-173.5113)"><rect width="126" height="32" x="388.5" y="577" fill="none" clip-path="url(#clipPath2)" rx="4" ry="4"/><text x="406.017" y="597.535" stroke="none" clip-path="url(#clipPath2)" font-family="sans-serif" xml:space="preserve">Optical Adapter</text></g><g fill="#FBE5A3" stroke="#FBE5A3" shape-rendering="geometricPrecision" text-rendering="geometricPrecision" transform="matrix(0.5133,0,0,0.5133,-34.9076,-173.5113)"><rect width="178" height="32" x="362.5" y="711" stroke="none" clip-path="url(#clipPath2)" rx="4" ry="4"/></g><g stroke-linecap="butt" stroke-miterlimit="1.45" shape-rendering="geometricPrecision" text-rendering="geometricPrecision" transform="matrix(0.5133,0,0,0.5133,-34.9076,-173.5113)"><rect width="178" height="32" x="362.5" y="711" fill="none" clip-path="url(#clipPath2)" rx="4" ry="4"/><text x="405.164" y="731.535" stroke="none" clip-path="url(#clipPath2)" font-family="sans-serif" xml:space="preserve">TAI Data Source</text></g><g fill="#B2A8D3" stroke="#B2A8D3" shape-rendering="geometricPrecision" text-rendering="geometricPrecision" transform="matrix(0.5133,0,0,0.5133,-34.9076,-173.5113)"><rect width="126" height="32" x="560.5" y="798" stroke="none" clip-path="url(#clipPath2)" rx="4" ry="4"/></g><g stroke-linecap="butt" stroke-miterlimit="1.45" shape-rendering="geometricPrecision" text-rendering="geometricPrecision" transform="matrix(0.5133,0,0,0.5133,-34.9076,-173.5113)"><rect width="126" height="32" x="560.5" y="798" fill="none" clip-path="url(#clipPath2)" rx="4" ry="4"/><text x="587.688" y="818.535" stroke="none" clip-path="url(#clipPath2)" font-family="sans-serif" xml:space="preserve">TAI Wrapper</text></g><g fill="#B2A8D3" stroke="#B2A8D3" shape-rendering="geometricPrecision" text-rendering="geometricPrecision" transform="matrix(0.5133,0,0,0.5133,-34.9076,-173.5113)"><rect width="126" height="32" x="478" y="916" stroke="none" clip-path="url(#clipPath2)" rx="4" ry="4"/></g><g stroke-linecap="butt" stroke-miterlimit="1.45" shape-rendering="geometricPrecision" text-rendering="geometricPrecision" transform="matrix(0.5133,0,0,0.5133,-34.9076,-173.5113)"><rect width="126" height="32" x="478" y="916" fill="none" clip-path="url(#clipPath2)" rx="4" ry="4"/><text x="495.842" y="936.535" stroke="none" clip-path="url(#clipPath2)" font-family="sans-serif" xml:space="preserve">TAI Shell Server</text></g><g fill="#B2A8D3" stroke="#B2A8D3" shape-rendering="geometricPrecision" text-rendering="geometricPrecision" transform="matrix(0.5133,0,0,0.5133,-34.9076,-173.5113)"><rect width="126" height="32" x="634" y="916" stroke="none" clip-path="url(#clipPath2)" rx="4" ry="4"/></g><g stroke-linecap="butt" stroke-miterlimit="1.45" shape-rendering="geometricPrecision" text-rendering="geometricPrecision" transform="matrix(0.5133,0,0,0.5133,-34.9076,-173.5113)"><rect width="126" height="32" x="634" y="916" fill="none" clip-path="url(#clipPath2)" rx="4" ry="4"/><text x="673.82" y="936.535" stroke="none" clip-path="url(#clipPath2)" font-family="sans-serif" xml:space="preserve">libtai.so</text><rect width="1" height="1" x="309" y="501.5" fill="none" clip-path="url(#clipPath2)"/><rect width="1" height="1" x="903" y="501.5" fill="none" clip-path="url(#clipPath2)"/><text x="884.551" y="426.402" stroke="none" clip-path="url(#clipPath2)" font-family="sans-serif" xml:space="preserve">gNMI and Stratum types</text><text x="884.551" y="440.535" stroke="none" clip-path="url(#clipPath2)" font-family="sans-serif" xml:space="preserve">gNMI.proto</text><text x="884.551" y="454.668" stroke="none" clip-path="url(#clipPath2)" font-family="sans-serif" xml:space="preserve">common.proto</text><text x="886.962" y="554.836" stroke="none" clip-path="url(#clipPath2)" font-family="sans-serif" xml:space="preserve">Stratum common types</text><text x="886.962" y="568.969" stroke="none" clip-path="url(#clipPath2)" font-family="sans-serif" xml:space="preserve">common.proto</text><text x="886.962" y="583.102" stroke="none" clip-path="url(#clipPath2)" font-family="sans-serif" xml:space="preserve">phal.proto</text><text x="886.962" y="597.234" stroke="none" clip-path="url(#clipPath2)" font-family="sans-serif" xml:space="preserve">db.proto</text><rect width="1" height="1" x="905" y="861" fill="none" clip-path="url(#clipPath2)"/><rect width="1" height="1" x="304" y="861" fill="none" clip-path="url(#clipPath2)"/><text x="882.181" y="899.402" stroke="none" clip-path="url(#clipPath2)" font-family="sans-serif" xml:space="preserve">TAI types</text><text x="882.181" y="913.535" stroke="none" clip-path="url(#clipPath2)" font-family="sans-serif" xml:space="preserve">taish.proto</text><text x="882.181" y="927.668" stroke="none" clip-path="url(#clipPath2)" font-family="sans-serif" xml:space="preserve">taitypes.h</text><path fill="none" d="M623.5 402.0044 L623.5 442.9978" clip-path="url(#clipPath2)"/><path fill="none" d="M623.5 474.9961 L623.5 515.0028" clip-path="url(#clipPath2)"/><path fill="none" d="M662.8536 546.9995 L736.6364 576.9964" clip-path="url(#clipPath2)"/><path fill="none" d="M763.0993 608.9884 L636.4 766.0125" clip-path="url(#clipPath2)"/><path fill="none" d="M623.5 547.0146 L623.5 576.968" clip-path="url(#clipPath2)"/><path fill="none" d="M623.5 609.0115 L623.5 765.9935" clip-path="url(#clipPath2)"/><path fill="none" d="M574 608.9893 L574 660 L514.5145 660" clip-path="url(#clipPath2)"/><path fill="none" d="M581.5498 546.1216 L495.8554 577.0114" clip-path="url(#clipPath2)"/><path fill="none" d="M451.5 608.9976 L451.5 644.0119" clip-path="url(#clipPath2)"/><path fill="none" d="M451.5 675.9976 L451.5 711.0119" clip-path="url(#clipPath2)"/><path fill="none" d="M501.5127 742.9924 L573.4363 765.9913" clip-path="url(#clipPath2)"/><path fill="none" d="M612.3214 829.9888 L552.1962 915.986" clip-path="url(#clipPath2)"/><text x="531.734" y="875.973" stroke="none" clip-path="url(#clipPath2)" font-family="sans-serif" xml:space="preserve">gRPC</text><path fill="none" d="M633.4591 829.9888 L687.0252 915.986" clip-path="url(#clipPath2)"/><text x="674.701" y="879.638" stroke="none" clip-path="url(#clipPath2)" font-family="sans-serif" xml:space="preserve">TAI C++ API</text><path fill="none" stroke-dasharray="6 2" d="M310 502 L903 502" clip-path="url(#clipPath2)"/><path fill="none" stroke-dasharray="6 2" d="M305 861.5 L905 861.5" clip-path="url(#clipPath2)"/></g></g></svg>