<svg xmlns="http://www.w3.org/2000/svg" xmlns:xlink="http://www.w3.org/1999/xlink" width="500" height="173" fill="#000" fill-opacity="1" stroke="#000" stroke-dasharray="none" stroke-dashoffset="0" stroke-linecap="square" stroke-linejoin="miter" stroke-miterlimit="10" stroke-opacity="1" stroke-width="1" color-interpolation="auto" color-rendering="auto" font-family="'Dialog'" font-size="12" font-style="normal" font-weight="normal" image-rendering="auto" shape-rendering="auto" text-rendering="auto"><g><defs id="defs1"><clipPath id="clipPath1" clipPathUnits="userSpaceOnUse"><path d="M0 0 L500 0 L500 173 L0 173 L0 0 Z"/></clipPath><clipPath id="clipPath2" clipPathUnits="userSpaceOnUse"><path d="M172 222 L872 222 L872 464.2 L172 464.2 L172 222 Z"/></clipPath></defs><g fill="#fff" stroke="#fff" shape-rendering="geometricPrecision" text-rendering="geometricPrecision" transform="scale(0.7143,0.7143) translate(-172,-222)"><rect width="700" height="243" x="172" y="222" stroke="none" clip-path="url(#clipPath2)"/></g><g fill="#FBE5A3" stroke="#FBE5A3" shape-rendering="geometricPrecision" text-rendering="geometricPrecision" transform="matrix(0.7143,0,0,0.7143,-122.8571,-158.5714)"><rect width="188" height="76" x="187" y="359.5" stroke="none" clip-path="url(#clipPath2)"/></g><g stroke-linecap="butt" stroke-miterlimit="1.45" shape-rendering="geometricPrecision" text-rendering="geometricPrecision" transform="matrix(0.7143,0,0,0.7143,-122.8571,-158.5714)"><rect width="188" height="76" x="187" y="359.5" fill="none" clip-path="url(#clipPath2)"/><text x="231.527" y="403.547" stroke="none" clip-path="url(#clipPath2)" font-family="sans-serif" font-size="16" xml:space="preserve">Transponder</text></g><g fill="#FBE5A3" stroke="#FBE5A3" shape-rendering="geometricPrecision" text-rendering="geometricPrecision" transform="matrix(0.7143,0,0,0.7143,-122.8571,-158.5714)"><rect width="188" height="76" x="187" y="257.5" stroke="none" clip-path="url(#clipPath2)"/></g><g stroke-linecap="butt" stroke-miterlimit="1.45" shape-rendering="geometricPrecision" text-rendering="geometricPrecision" transform="matrix(0.7143,0,0,0.7143,-122.8571,-158.5714)"><rect width="188" height="76" x="187" y="257.5" fill="none" clip-path="url(#clipPath2)"/><text x="231.527" y="301.547" stroke="none" clip-path="url(#clipPath2)" font-family="sans-serif" font-size="16" xml:space="preserve">Transponder</text></g><g fill="#B2A8D3" stroke="#B2A8D3" shape-rendering="geometricPrecision" text-rendering="geometricPrecision" transform="matrix(0.7143,0,0,0.7143,-122.8571,-158.5714)"><rect width="188" height="213" x="669" y="237" stroke="none" clip-path="url(#clipPath2)"/></g><g stroke-linecap="butt" stroke-miterlimit="1.45" shape-rendering="geometricPrecision" text-rendering="geometricPrecision" transform="matrix(0.7143,0,0,0.7143,-122.8571,-158.5714)"><rect width="188" height="213" x="669" y="237" fill="none" clip-path="url(#clipPath2)"/><text x="705.695" y="349.547" stroke="none" clip-path="url(#clipPath2)" font-family="sans-serif" font-size="16" xml:space="preserve">Switching ASIC</text></g><g fill="#D3E2F2" stroke="#D3E2F2" shape-rendering="geometricPrecision" text-rendering="geometricPrecision" transform="matrix(0.7143,0,0,0.7143,-122.8571,-158.5714)"><rect width="224" height="213" x="424" y="237" stroke="none" clip-path="url(#clipPath2)"/></g><g stroke-linecap="butt" stroke-miterlimit="1.45" shape-rendering="geometricPrecision" text-rendering="geometricPrecision" transform="matrix(0.7143,0,0,0.7143,-122.8571,-158.5714)"><rect width="224" height="213" x="424" y="237" fill="none" clip-path="url(#clipPath2)"/><text x="514.569" y="259.604" stroke="none" clip-path="url(#clipPath2)" font-family="sans-serif" xml:space="preserve">Module</text></g><g fill="#D4E7CD" stroke="#D4E7CD" shape-rendering="geometricPrecision" text-rendering="geometricPrecision" transform="matrix(0.7143,0,0,0.7143,-122.8571,-158.5714)"><rect width="170" height="35" x="342" y="278" stroke="none" clip-path="url(#clipPath2)"/></g><g stroke-linecap="butt" stroke-miterlimit="1.45" shape-rendering="geometricPrecision" text-rendering="geometricPrecision" transform="matrix(0.7143,0,0,0.7143,-122.8571,-158.5714)"><rect width="170" height="35" x="342" y="278" fill="none" clip-path="url(#clipPath2)"/><text x="375.382" y="300.035" stroke="none" clip-path="url(#clipPath2)" font-family="sans-serif" xml:space="preserve">Network Interface</text></g><g fill="#D4E7CD" stroke="#D4E7CD" shape-rendering="geometricPrecision" text-rendering="geometricPrecision" transform="matrix(0.7143,0,0,0.7143,-122.8571,-158.5714)"><rect width="170" height="35" x="342" y="380" stroke="none" clip-path="url(#clipPath2)"/></g><g stroke-linecap="butt" stroke-miterlimit="1.45" shape-rendering="geometricPrecision" text-rendering="geometricPrecision" transform="matrix(0.7143,0,0,0.7143,-122.8571,-158.5714)"><rect width="170" height="35" x="342" y="380" fill="none" clip-path="url(#clipPath2)"/><text x="375.382" y="402.035" stroke="none" clip-path="url(#clipPath2)" font-family="sans-serif" xml:space="preserve">Network Interface</text></g><g fill="#D4E7CD" stroke="#D4E7CD" shape-rendering="geometricPrecision" text-rendering="geometricPrecision" transform="matrix(0.7143,0,0,0.7143,-122.8571,-158.5714)"><rect width="170" height="35" x="550" y="278" stroke="none" clip-path="url(#clipPath2)"/></g><g stroke-linecap="butt" stroke-miterlimit="1.45" shape-rendering="geometricPrecision" text-rendering="geometricPrecision" transform="matrix(0.7143,0,0,0.7143,-122.8571,-158.5714)"><rect width="170" height="35" x="550" y="278" fill="none" clip-path="url(#clipPath2)"/><text x="594.274" y="300.035" stroke="none" clip-path="url(#clipPath2)" font-family="sans-serif" xml:space="preserve">Host Interface</text></g><g fill="#D4E7CD" stroke="#D4E7CD" shape-rendering="geometricPrecision" text-rendering="geometricPrecision" transform="matrix(0.7143,0,0,0.7143,-122.8571,-158.5714)"><rect width="170" height="35" x="550" y="380" stroke="none" clip-path="url(#clipPath2)"/></g><g stroke-linecap="butt" stroke-miterlimit="1.45" shape-rendering="geometricPrecision" text-rendering="geometricPrecision" transform="matrix(0.7143,0,0,0.7143,-122.8571,-158.5714)"><rect width="170" height="35" x="550" y="380" fill="none" clip-path="url(#clipPath2)"/><text x="594.274" y="402.035" stroke="none" clip-path="url(#clipPath2)" font-family="sans-serif" xml:space="preserve">Host Interface</text></g></g></svg>